<svg version="1.1" xmlns="http://www.w3.org/2000/svg" xmlns:xlink="http://www.w3.org/1999/xlink" width="473.18476" height="224.42422" viewBox="0,0,473.18476,224.42422"><g transform="translate(-3.40762,-67.78788)"><g data-paper-data="{&quot;isPaintingLayer&quot;:true}" fill-rule="nonzero" stroke-linejoin="miter" stroke-miterlimit="10" stroke-dasharray="" stroke-dashoffset="0" style="mix-blend-mode: normal"><path d="M286.36458,153.15896c0,0 -9.47471,9.45584 -17.78878,12.47014c-6.43028,2.33133 -17.88294,1.28743 -17.88294,1.28743c0,0 -8.10524,-8.75455 -11.55101,-19.8182c-3.57368,-11.47432 -5.1207,-25.38382 -5.1207,-25.38382l35.78283,1.24242c0,0 -2.89658,15.78082 4.95584,25.20949c7.52628,9.03706 11.60476,4.99254 11.60476,4.99254z" fill="#8e2619" stroke="#000000" stroke-width="0.5" stroke-linecap="butt"/><path d="M265.82755,157.89935c0.18366,4.22311 -3.41279,5.54274 -8.17094,5.54274c-4.75815,0 -14.69231,-7.2729 -14.69231,-11.5c0,-1.84951 0.45434,-3.93006 2.90124,-4.76585c1.61802,-0.55266 4.21993,-0.6855 6.07521,0.23361c3.1205,1.54589 5.25432,4.80147 5.25432,4.80147c0,0 -1.14093,-1.73377 -1.92182,-2.50534c-0.8028,-0.79321 -3.77549,-2.46854 -3.77549,-2.46854c0,0 4.27076,-1.79626 7.17063,-0.31615c3.87243,1.97652 6.93695,5.86823 7.15917,10.97806z" fill="#ff4a4f" stroke="#cc0d15" stroke-width="0.5" stroke-linecap="butt"/><path d="M239.15237,125.67876c0,0 -3.0259,18.13697 8.11297,26.5753c29.46282,18.75127 41.93126,-6.43116 41.93126,-6.43116l7.87513,29.03126l-9.09793,4.16671l-5.70477,16.79123c0,0 -4.37774,-7.86928 -8.21216,-11.63759c-4.32619,-4.25159 -5.17454,-4.1774 -5.17454,-4.1774c0,0 -10.45631,0.6617 -18.47682,-2.17648c-6.9699,-2.46641 -16.78577,-10.31457 -16.78577,-10.31457c0,0 -0.66886,-3.91665 -0.51737,-11.32729c1.2,-58.69952 -13.53258,-77.14495 -2,-83.9c9.01645,-5.28126 32.65546,5.93916 42.19501,49.90678c1.03193,4.75617 12.52313,2.58742 12.52313,2.58742c0,0 -4.86118,11.78076 -27.69107,11.95931c-12.37287,0.09677 -18.97707,-11.05352 -18.97707,-11.05352z" fill="#ff9186" stroke="#ff543d" stroke-width="1.5" stroke-linecap="butt"/><path d="M112.22794,161.1121c0,9.81848 0.07305,15.57725 -1.78666,23.01168c-2.89996,11.59289 -22.66277,8.82166 -28.04668,8.82166c-0.37273,0 -33.07581,-10.36958 -33.44217,-10.44089c-4.98624,-0.97061 0.99728,-6.47922 6.7899,-16.66971c3.87207,-6.81181 6.99503,-16.32411 9.15227,-25.72273c5.5,-23.96229 -7.17736,-38.66322 4,-45.83334c9.86413,-6.63867 24.73858,7.12019 30.87698,34.89386c3.44929,15.60659 12.45636,20.86447 12.45636,31.93948z" fill="#a3decc" stroke="#407364" stroke-width="0.5" stroke-linecap="butt"/><path d="M137.42571,233.62352l-18.57509,0.19938l-0.06818,1.1521l-1.45238,-13.95238l0.03163,1.22762l19.80824,-0.39739l-0.03035,-1.73499l0.33333,14.2381z" data-paper-data="{&quot;index&quot;:null}" fill="#cd3c05" stroke="#000000" stroke-width="0.5" stroke-linecap="butt"/><g data-paper-data="{&quot;index&quot;:null}"><path d="M126.22149,203.27253c0,0 0.86713,-8.66607 6.53653,-12.75605c2.5128,-2.40763 5.11074,-3.58057 5.11074,-3.58057c0,0 18.78572,5.54277 18.78572,16.78571c0,2.3952 -1.00339,6.08974 -5.73093,9.72091c-4.2335,3.2517 -14.53151,7.30835 -14.53151,7.30835c0,0 5.7971,-0.09971 10.27334,1.14545c5.93988,1.6523 8.67134,5.96325 -3.79662,8.61101c-6.76615,1.43689 -20.1046,-2.84129 -20.67616,-7.55004c-0.82372,-6.78608 13.17616,-15.23568 13.17616,-15.23568z" fill="#a3decc" stroke="#407364" stroke-width="0.5" stroke-linecap="butt"/><path d="M148.77053,195.36041c0.42862,0.29725 0.69103,0.66085 0.58612,0.81213c-0.10491,0.15127 -0.53742,0.03294 -0.96604,-0.26431c-0.42862,-0.29725 -0.69103,-0.66085 -0.58612,-0.81213c0.10491,-0.15127 0.53742,-0.03294 0.96604,0.26431z" fill="#407364" stroke="#407364" stroke-width="0.5" stroke-linecap="butt"/><path d="M126.08057,203.74544c0,0 1.16577,-7.96067 6.14941,-13.1938c2.32535,-2.44176 6.9617,-4.47287 6.9617,-4.47287" fill="none" stroke="#000000" stroke-width="1" stroke-linecap="round"/></g><path d="M71.14969,283.34067c-1.92536,3.30688 -5.64728,5.08859 -8,3.64286c-7.90428,-4.85714 -9.57143,-15.5 -9.57143,-15.5l21.14286,1.07143c0,0 -0.42857,5.38774 -3.57143,10.78572z" fill="#a3decc" stroke="#407364" stroke-width="0.5" stroke-linecap="butt"/><path d="M116.72112,283.48353c-1.92536,3.30687 -5.64727,5.08859 -8,3.64285c-7.90428,-4.85715 -9.57143,-15.5 -9.57143,-15.5l21.14285,1.07143c0,0 -0.42857,5.38774 -3.57143,10.78571z" fill="#a3decc" stroke="#407364" stroke-width="0.5" stroke-linecap="butt"/><path d="M131.20122,208.18687c0,0 23.67663,35.38465 1.94369,49.28375c-3.04568,1.75887 -12.16154,4.41706 -12.16154,4.41706l5.79124,-1.5533l-2.08905,12.5443c0,0 -7.9525,5.61897 -25.03122,2.31925c-2.99839,-0.5793 -5.71243,-1.90435 -5.71243,-1.90435l-0.62528,-6.66467c0,0 6.35973,-0.82498 8.9781,-1.36457c3.1158,-0.64211 10.23526,-2.35929 10.23526,-2.35929c0,0 -9.08088,2.8041 -17.60585,3.5011c-4.93288,0.40332 -15.46505,0.7931 -24.29609,-0.49548c-7.06331,-1.03065 -13.2185,-3.76547 -13.2185,-3.76547c0,0 5.1917,2.09237 8.22916,2.77188c3.52774,0.7892 11.68735,1.68367 11.68735,1.68367l1.6881,7.79967c0,0 -9.90886,3.81617 -25.48866,-0.7534c-4.27075,-1.25261 -8.23893,-3.02208 -8.23893,-3.02208l1.22477,-9.83029l3.6643,0.93689c0,0 -31.89108,-6.42861 -28.89108,-31.71135c1.12913,-9.51581 10.97917,-23.54985 10.97917,-23.54985c0,0 -6.59596,6.82433 20.52718,8.74728c6.00553,0.42577 13.59061,1.32449 23.16031,1.05257c11.77812,-0.33467 28.02003,0.28564 41.83566,-0.93592c8.84911,-0.78242 13.41434,-7.14741 13.41434,-7.14741z" fill="#959595" stroke="#000000" stroke-width="0.5" stroke-linecap="butt"/><path d="M75.19379,234.89001l0.33334,-14.23809l-0.03035,1.73499l39.37967,-0.31689l0.17449,-2.79905l0.2619,18.66667l-0.49675,-2.00924l-39.57509,-1.7708z" fill="#cd3c05" stroke="#000000" stroke-width="0.5" stroke-linecap="butt"/><path d="M73.08207,266.32436c0,0 -3.21162,0.56531 -4.67769,0.65694c-1.0824,0.06765 -3.32231,-0.15694 -3.32231,-0.15694" fill="none" stroke="#000000" stroke-width="0.5" stroke-linecap="round"/><path d="M68.9154,259.15769c0,0 -6.57537,-3.06441 -11.96316,-8.21857c-2.97423,-2.84525 -7.37017,-9.78142 -7.37017,-9.78142" fill="none" stroke="#000000" stroke-width="0.5" stroke-linecap="round"/><path d="M74.4154,263.1577c0,0 -8.75441,-2.80212 -13.39597,-4.8834c-3.30031,-1.47987 -7.43736,-5.1166 -7.43736,-5.1166" fill="none" stroke="#000000" stroke-width="0.5" stroke-linecap="round"/><path d="M91.08207,240.6577c0,0 0.1522,7.87672 -1.13333,11.73333c-1.32442,3.97325 -5.36667,11.76666 -5.36667,11.76666" fill="none" stroke="#000000" stroke-width="0.5" stroke-linecap="round"/><path d="M98.74874,252.82436c0,0 -1.87893,4.86523 -3.31602,6.64828c-1.5538,1.92785 -5.68398,4.51839 -5.68398,4.51839" fill="none" stroke="#000000" stroke-width="0.5" stroke-linecap="round"/><path d="M114.74874,264.49103c0,0 -4.40066,1.75817 -7.64042,1.45918c-2.08157,-0.19211 -5.35958,-0.29252 -5.35958,-0.29252" fill="none" stroke="#000000" stroke-width="0.5" stroke-linecap="round"/><path d="M140.87346,188.86768c0,5.00167 -4.38948,12.6502 -13.40209,17.81719c-1.84595,1.05829 -10.56793,-8.78427 -10.56793,-8.78427c0,0 4.49572,5.87473 7.9654,8.32229c0.56141,0.39603 1.92967,0.87685 2.65292,1.1243c1.92368,0.65817 3.33392,0.67783 3.33392,0.67783c0,0 -0.36392,4.49541 -10.63785,7.25715c-7.61112,2.04595 -22.76652,2.68926 -36.21937,2.21051c-7.09414,-0.88736 -35.72596,-0.93447 -49.51094,-1.76521c-4.49947,-0.27116 -7.01553,-2.31435 -7.01553,-2.31435l9.69394,-14.40583l7.68677,-4.81356l2.76684,-0.87191l-2.85361,0.72726l2.48253,-2.05641c0,0 -11.30455,9.01225 -14.02447,7.87565c-10.46157,-4.37166 -14.81289,-14.22999 -14.2504,-18.65489c0.35206,-2.76952 5.31751,-2.65198 14.2303,-5.97093c3.36012,-1.25125 18.36287,-5.16257 18.36287,-5.16257c0,0 0.38005,-1.2666 0.51154,-1.74075c0.69831,-2.51827 3.29852,-1.77448 3.29852,-1.77448l-1.76046,3.99764c0,0 3.63159,6.33952 7.04587,9.28142c19.74836,17.01613 32.93005,10.35268 38.46125,9.52391c3.66469,-0.5491 10.47548,-5.47597 10.47548,-5.47597c0,0 0.80931,-3.18757 1.28247,-5.12426c0.58636,-2.40001 1.34449,-8.3113 1.34449,-8.3113c0,0 28.64755,14.77576 28.64755,18.41153z" fill="#ffffff" stroke="#000000" stroke-width="0.5" stroke-linecap="butt"/><path d="M172.93413,278.45702c3.66319,5.2727 2.37151,9.75 -0.5625,9.75c-2.93401,0 -20.4375,-18.125 -20.4375,-18.125c0,0 6.85734,-2.33145 9.9146,-3.09288c2.05313,-0.51135 8.1479,1.46788 8.1479,1.46788c0,0 -4.5625,-0.79531 2.9375,10z" fill="#fbc2f9" stroke="#764d87" stroke-width="0.5" stroke-linecap="butt"/><path d="M199.80913,266.76952c0,0 -6.94752,16.5625 -17.8125,19.0625c-2.79202,0.64244 -4.16445,-1.31003 -2.6875,-5.4375c3,-8.38376 4.3125,-13.8125 4.3125,-13.8125c0,0 6.08562,-1.55161 8.94061,-1.51855c2.49106,0.02885 7.24689,1.70605 7.24689,1.70605z" fill="#fbc2f9" stroke="#764d87" stroke-width="0.5" stroke-linecap="butt"/><path d="M251.8205,273.6121c0,0 0.1456,5.0366 -3.58345,11.81096c-2.72541,4.95111 -5.66542,6.28904 -6.81655,6.28904c-2.81665,0 -7.25701,-4.39775 -8.1,-9.8c-0.9,-5.76762 -0.8,-8.8 -0.8,-8.8z" fill="#ff9186" stroke="#ff543d" stroke-width="1" stroke-linecap="butt"/><path d="M291.8205,276.4621c-3.5,10.2534 -5.76244,11.65 -8.8,11.65c-3.03756,0 -7.87143,-4.59659 -6.97143,-13.95c0.12896,-1.34024 0.58284,-3.96976 0.58284,-3.96976l16.13144,-0.20881c0,0 0.68963,1.69612 -0.94286,6.47857z" fill="#ff9186" stroke="#ff543d" stroke-width="1" stroke-linecap="butt"/><path d="M298.69168,271.15769c0,0 -6.36766,6.42579 -20.65128,4.51608c-4.58179,-0.61258 -7.73761,-2.68274 -7.73761,-2.68274l1.94444,-18.5l28.16667,-4.72222z" fill="#6e5fdc" stroke="#000000" stroke-width="1" stroke-linecap="butt"/><g stroke-linecap="butt"><path d="M222.18676,225.33797c5.07939,13.00284 -2.27551,29.61893 -2.27551,29.61893c0,0 4.66032,3.18367 5.773,5.42514c3.82102,7.69729 -8.46006,3.97061 -8.46006,3.97061c0,0 -1.5019,4.03763 -6.07573,5.23568c-4.64622,1.21702 -10.19937,-0.11283 -10.19937,-0.11283c0,0 -5.61813,4.86646 -10.54476,4.27328c-3.59318,-0.43264 -9.25646,-2.39572 -9.25646,-2.39572c0,0 -7.50774,4.02827 -11.89066,4.30424c-3.6835,0.23194 -12.31331,-5.11933 -12.31331,-5.11933c0,0 -9.50504,1.01357 -12.75965,0.30561c-3.25741,-0.70857 -6.77642,-4.55518 -6.77642,-4.55518c0,0 -4.99918,0.96501 -9.22457,0.29694c-5.89635,-0.93227 -6.90944,-5.52429 -6.90944,-5.52429c0,0 -17.54978,-4.99671 -6.98504,-10.47282c2.62641,-1.36137 6.78327,2.22021 6.78327,2.22021c0,0 -15.80648,-11.26201 -9.59957,-27.72761c5.29082,-11.083 13.67089,-15.96756 13.67089,-15.96756c0,0 -7.97419,-4.80097 -0.0931,-16.26985c2.52969,-3.68883 14.31005,-4.65375 14.31005,-4.65375l-14.78784,4.6626l-5.1582,-3.90934c0,0 4.95272,-5.67085 9.45199,-7.85852c10.79937,-5.25095 16.53421,-3.51841 16.53421,-3.51841l-1.12667,5.69586c0,0 28.56043,7.2021 51.12959,17.71764c6.01239,2.80132 8.88603,-2.26933 13.91192,0.81386c7.70583,4.72723 11.32648,19.58963 12.87144,23.54462z" fill="#1f699a" stroke="#000000" stroke-width="0"/><path d="M188.36087,273.03639l-6.97653,-1.88481c0,0 -9.21333,4.55148 -11.24569,4.55148c-3.33644,0 -8.09571,-2.19968 -9.58646,-3.41146c-1.74527,-1.41868 -3.85798,-1.64915 -3.85798,-1.64915c0,0 0.94757,-3.85618 3.56812,-8.0188c3.28733,-5.22176 10.22628,-6.99906 13.43188,-6.80948c18.78827,1.11111 14.66667,17.22222 14.66667,17.22222z" fill="#acd3f0" stroke="none" stroke-width="0"/><path d="M220.36087,255.75861c0,0 7.34,5.01293 5.50588,7.86762c-1.66393,2.5898 -8.01163,0.68268 -8.01163,0.68268c0,0 -3.2774,3.58363 -6.29762,5.04781c-2.47893,1.20176 -10.14106,-0.20922 -10.14106,-0.20922c0,0 -6.5,-4.38911 -6.5,-11.72222c0,-7.33311 6.87018,-17.11369 16.5,-15.94444c12.01756,1.45916 8.94444,14.27778 8.94444,14.27778z" fill="#acd3f0" stroke="none" stroke-width="0"/><path d="M156.24976,246.42528c-2.19281,8.06144 -6.10371,11.72222 -18.5,10.16667c-9.10268,-1.14225 -16.83333,-11.16689 -16.83333,-18.5c0,-7.33311 6.62211,-13.88468 15.72222,-12.72222c17.39629,2.22222 21.01244,15.90384 19.61111,21.05556z" fill="#acd3f0" stroke="none" stroke-width="0"/><path d="M142.02754,199.6475c0,6.35127 -3.36293,11.19841 -9.25397,11.19841c-5.89104,0 -11.6098,-2.78163 -11.19048,-9.11905c0.85714,-12.95445 12.77778,-12.62698 12.77778,-12.62698c0,0 7.66667,4.19634 7.66667,10.54762z" fill="#acd3f0" stroke="none" stroke-width="0"/><path d="M222.10104,225.31893c5.07939,13.00284 -2.27551,29.61893 -2.27551,29.61893c0,0 4.66031,3.18367 5.773,5.42514c3.82102,7.69729 -8.46006,3.97061 -8.46006,3.97061c0,0 -1.5019,4.03763 -6.07573,5.23568c-4.64622,1.21702 -10.19937,-0.11283 -10.19937,-0.11283c0,0 -5.61813,4.86646 -10.54476,4.27328c-3.59318,-0.43264 -9.25646,-2.39572 -9.25646,-2.39572c0,0 -7.50773,4.02827 -11.89066,4.30424c-3.6835,0.23194 -12.31331,-5.11933 -12.31331,-5.11933c0,0 -9.50504,1.01357 -12.75965,0.30561c-3.25741,-0.70857 -6.77642,-4.55518 -6.77642,-4.55518c0,0 -4.99918,0.96501 -9.22457,0.29694c-5.89635,-0.93227 -6.90944,-5.52429 -6.90944,-5.52429c0,0 -17.54978,-4.99671 -6.98504,-10.47282c2.62641,-1.36137 6.78327,2.22021 6.78327,2.22021c0,0 -15.80648,-11.26201 -9.59957,-27.72761c5.29081,-11.083 13.67089,-15.96757 13.67089,-15.96757c0,0 -3.82707,-2.74007 -3.80007,-6.27923c-0.96495,-3.54417 4.00697,-11.69062 4.00697,-11.69062l-5.28994,-2.45376c0,0 3.98472,-4.78287 7.53182,-6.64c10.42906,-5.46026 17.18034,-4.2974 17.18034,-4.2974l-0.2079,6.0142c0,0 36.15829,9.09465 51.14908,17.8757c5.58734,3.27285 13.03952,-0.35652 13.03952,-0.35652c0,0 2.49152,0.10807 6.16255,6.54697c2.51998,4.42 6.35958,15.17214 7.27102,17.50538z" fill="none" stroke="#000000" stroke-width="1"/></g><path d="M311.90124,242.2871c-2.38088,9.38397 -19.29611,23.83902 -44.70857,22.67666c-3.26261,0.35996 -11.86087,-1.44055 -11.86087,-1.44055l3.11123,0.67948l-1.43237,12.78133c0,0 -6.91639,4.62599 -18.70196,2.83567c-5.49579,-0.83486 -10.6629,-5.83684 -10.6629,-5.83684l0.45407,-16.58971l4.41404,1.73796c0,0 -4.08303,-1.37853 -7.24792,-3.36305c-4.30881,-2.7018 -8.19611,-6.38454 -9.61199,-7.92423c-9.91252,-10.77925 -7.53053,-28.55672 -7.53053,-28.55672c0,0 19.27422,15.125 81.375,9.875c13.42576,-1.13502 23.20374,-3.78681 23.20374,-3.78681c0,0 3.09749,1.54649 -0.80097,16.91181z" fill="#6e5fdc" stroke="#000000" stroke-width="1" stroke-linecap="butt"/><path d="M300.4274,199.84543c15.2993,23.8203 14.50832,29.60289 14.50832,29.60289c0,0 -4.79192,5.51767 -13.0199,7.69259c-3.75763,0.99327 -7.96368,2.73649 -7.96368,2.73649l-3.2792,-6.38907l-1.88796,7.42658c0,0 -15.54944,0.47097 -22.37426,-0.18337c-13.92305,-1.33489 -59.07817,-15.58773 -59.07817,-15.58773c0,0 -0.77183,-12.09257 5.22817,-25.78172c3.85491,-8.79506 22.43275,-33.08614 22.43275,-33.08614c0,0 7.4058,5.30553 13.31566,7.80554c8.54787,3.61596 22.70159,5.0806 22.70159,5.0806l11.07441,11.91318l5.38347,-13.71224l9.41471,-2.38246c0,0 4.11098,12.27178 3.54408,24.86486z" fill="#b2e838" stroke="#000000" stroke-width="1" stroke-linecap="butt"/><path d="M25.93006,231.95594l0.33333,-14.2381l-0.03035,1.73499l19.80824,0.39739l0.03163,-1.22762l-1.45238,13.95238l-0.06818,-1.15209l-18.57509,-0.19938z" fill="#cd3c05" stroke="#000000" stroke-width="0.5" stroke-linecap="butt"/><path d="M50.43006,232.05595l1.23334,-13.2381l0.26965,1.63499l18.00824,0.6974l0.23163,-0.92763l-0.65239,14.55238l-0.06818,-1.6521l-18.77509,-1.79937z" fill="#cd3c05" stroke="#000000" stroke-width="0.5" stroke-linecap="butt"/><path d="M105.87589,222.70281c0,3.12008 0.16555,9.50695 -0.44493,12.69687c-0.20873,1.09068 -13.65878,0.34159 -15.05507,0.34159c-5.33167,0 -4.49271,-2.35773 -4.34615,-7.88462c0.16749,-6.31624 -1.52398,-7.65385 3.80769,-7.65385c3.01423,0 9.97719,0.06338 13.52148,0.34732c2.72497,0.2183 2.51699,0.31535 2.51699,2.15268z" fill="#ffc23f" stroke="#000000" stroke-width="0.5" stroke-linecap="butt"/><path d="M102.79896,224.27974l-0.67973,0.137c0,0 0.40571,1.8848 0.42096,2.63593c0.02592,1.27627 -0.27969,4.32109 -0.27969,4.32109c0,0 -1.46439,0.58287 -6.92556,0.49005c-1.71658,-0.02918 -3.84367,-0.58407 -3.84367,-0.58407c0,0 -0.09613,-2.4977 -0.06936,-3.69214c0.02426,-1.08223 0.22321,-3.17111 0.22321,-3.17111c0,0 3.81584,-0.02541 5.76877,-0.00812c1.18215,0.01047 5.38507,-0.12863 5.38507,-0.12863z" fill="#cd3c05" stroke="#000000" stroke-width="0.5" stroke-linecap="butt"/><path d="M24.94334,202.72162c0,0 13.99988,8.4496 13.17616,15.23568c-0.57156,4.70875 -13.91001,8.98693 -20.67616,7.55004c-12.46796,-2.64776 -9.7365,-6.95871 -3.79662,-8.61101c4.47624,-1.24516 10.27334,-1.14545 10.27334,-1.14545c0,0 -10.29801,-4.05665 -14.53151,-7.30835c-4.72754,-3.63117 -5.73093,-7.32571 -5.73093,-9.72091c0,-11.24294 18.78572,-16.78571 18.78572,-16.78571c0,0 2.59794,1.17294 5.11074,3.58057c5.6694,4.08998 6.53653,12.75605 6.53653,12.75605z" fill="#a3decc" stroke="#407364" stroke-width="0.5" stroke-linecap="butt"/><path d="M12.50761,190.0961c0.10491,0.15128 -0.1575,0.51488 -0.58612,0.81213c-0.42862,0.29725 -0.86113,0.41558 -0.96604,0.26431c-0.10491,-0.15128 0.1575,-0.51488 0.58612,-0.81213c0.42862,-0.29725 0.86113,-0.41558 0.96604,-0.26431z" fill="#407364" stroke="#407364" stroke-width="0.5" stroke-linecap="butt"/><path d="M21.12042,181.07877c0,0 4.63635,2.03111 6.9617,4.47287c4.98364,5.23313 6.14941,13.1938 6.14941,13.1938" fill="none" stroke="#000000" stroke-width="1" stroke-linecap="round"/><path d="M75.59254,190.99375c0,0 -1.98476,1.979 -2.63858,2.99745c-0.67957,1.05857 -1.36459,3.23824 -1.36459,3.23824c0,0 -7.51693,-4.84353 -9.75156,-7.19035c-2.94609,-3.09401 -7.38812,-10.75963 -7.38812,-10.75963" fill="none" stroke="#000000" stroke-width="0.5" stroke-linecap="round"/><path d="M114.59254,184.27946c0,0 -1.65702,4.23128 -2.83223,6.18669c-1.16145,1.93252 -4.17825,5.4779 -4.17825,5.4779c0,0 -1.59706,-3.33568 -2.40109,-4.58349c-0.81145,-1.25932 -2.44557,-2.93824 -2.44557,-2.93824l10.28571,-6.14286" fill="none" stroke="#000000" stroke-width="0.5" stroke-linecap="round"/><path d="M92.16397,205.13661c0,1.18347 -0.99137,2.14286 -2.21429,2.14286c-1.22292,0 -2.21429,-0.95939 -2.21429,-2.14286c0,-1.18347 0.99137,-2.14286 2.21429,-2.14286c1.22292,0 2.21429,0.95939 2.21429,2.14286z" fill="none" stroke="#000000" stroke-width="0.5" stroke-linecap="butt"/><path d="M102.10653,201.14227c0,0.53566 -1.83835,1.29752 -4.18473,0.0936c-3.10207,-1.59168 -6.25924,-5.59509 -6.25924,-5.59509c0,0 -0.88171,1.93939 -2.433,1.34632c-1.08731,-0.41568 -1.88702,-0.69395 -1.88702,-0.69395c0,0 -2.78854,7.19808 -7.5138,7.90468c-7.01872,1.04954 -3.72222,-10.16667 -3.72222,-10.16667c0,0 -1.31515,-7.30466 1.16667,-8.83333c3.70281,-2.28074 10.25471,5.46253 10.25471,5.46253c0,0 1.02249,-0.74375 1.7036,-0.81266c1.8912,-0.19134 2.72676,0.98803 2.72676,0.98803c0,0 6.77325,-9.53834 10.28427,-5.71761c3.1026,3.37628 1.83997,5.01213 2.1006,9.3468c0.24942,4.14838 -2.2366,5.86003 -2.2366,6.67735z" fill="#dc1238" stroke="#000000" stroke-width="0.5" stroke-linecap="butt"/><path d="M87.7732,193.30894l-3,-0.55556" fill="none" stroke="#000000" stroke-width="0.5" stroke-linecap="round"/><path d="M92.08431,193.44227c0,0 1.08242,-0.0395 2.10619,-0.0293c3.52337,0.03508 5.69381,2.2293 5.69381,2.2293" fill="none" stroke="#000000" stroke-width="0.5" stroke-linecap="round"/><path d="M87.61764,190.64227c0,0 0.41796,1.69274 0.38158,2.67504c-0.03765,1.01653 -0.67047,2.99163 -0.67047,2.99163" fill="none" stroke="#000000" stroke-width="0.5" stroke-linecap="round"/><path d="M91.86209,190.8645c0,0 0.06788,1.77334 0.03276,2.54593c-0.03862,0.8497 -0.45498,2.67629 -0.45498,2.67629" fill="none" stroke="#000000" stroke-width="0.5" stroke-linecap="round"/><path d="M67.08535,104.3621c0,0.9665 -0.33579,1.75 -0.75,1.75c-0.41421,0 -0.75,-0.7835 -0.75,-1.75c0,-0.9665 0.33579,-1.75 0.75,-1.75c0.41421,0 0.75,0.7835 0.75,1.75z" fill="#407364" stroke="#407364" stroke-width="0.5" stroke-linecap="butt"/><path d="M67.21035,107.8621c0,-0.62132 0.16789,-1.125 0.375,-1.125c0.20711,0 0.375,0.50368 0.375,1.125c0,0.62132 -0.16789,1.125 -0.375,1.125c-0.20711,0 -0.375,-0.50368 -0.375,-1.125z" fill="#407364" stroke="#407364" stroke-width="0.5" stroke-linecap="butt"/><path d="M95.54692,164.77639c0,0 -8.21734,2.61716 -17.14155,-2.30888c-2.4523,-1.35363 -4.65845,-3.79112 -4.65845,-3.79112" fill="none" stroke="#000000" stroke-width="0.5" stroke-linecap="round"/><path d="M72.5036,153.0121c0,0 2.24759,2.92963 0.71552,7.18275c-0.51695,1.43509 -3.71552,2.38868 -3.71552,2.38868" fill="#a3decc" stroke="#407364" stroke-width="0.5" stroke-linecap="round"/><path d="M89.10146,173.07615c0,0 -1.56735,2.68397 -6.64183,2.41953c-1.41238,-0.0736 -3.26726,-0.87408 -3.26726,-0.87408" fill="none" stroke="#407364" stroke-width="0.5" stroke-linecap="round"/><path d="M87.84692,165.57549c0,0 -0.57022,1.33425 -0.84619,2.53671c-0.4944,2.15417 -0.06198,1.69934 -0.88714,2.49662c-1.04191,1.00671 -7.50512,-0.96388 -9.71706,-2.5881c-0.82367,-0.60482 -0.1978,-1.24422 0.24621,-2.14626c0.7574,-1.53868 1.53751,-3.39898 1.53751,-3.39898c0,0 3.27057,1.55049 4.74563,2.02873c1.36003,0.44095 4.92104,1.07127 4.92104,1.07127z" fill="#ffffff" stroke="#000000" stroke-width="0.5" stroke-linecap="butt"/><path d="M100.86397,139.51925c0,0 10.97267,1.5858 18.0964,6.42966c6.75768,4.59496 11.26584,10.86501 5.95925,11.72909c-4.03276,0.65667 -14.54528,-5.37911 -14.54528,-5.37911c0,0 8.73836,6.67056 4.71705,7.5138c-1.04186,0.21847 -3.41393,-0.12141 -6.06981,-1.64096c-2.59708,-1.48591 -5.49058,-4.14987 -5.49058,-4.14987c0,0 3.48383,5.96735 0.88646,6.38607c-2.91474,0.46988 -8.12491,-6.88868 -8.12491,-6.88868c0,0 -2.34907,8.43344 -6.99581,8.11003c-5.19058,-0.36126 0.80604,-9.49259 0.80604,-9.49259c0,0 -14.00885,11.77274 -15.24112,5.4214c-0.48435,-2.49647 5.14983,-6.21327 5.14983,-6.21327c0,0 -6.72175,4.80526 -10.14686,4.50236c-9.19002,-0.92934 -0.17178,-6.98097 -0.17178,-6.98097c0,0 -12.4003,4.68886 -13.4003,1.22446c-0.54556,-1.89002 3.23994,-4.93023 8.78779,-6.96984c6.91256,-2.54133 12.24521,-0.95999 12.24521,-0.95999c0,0 5.26753,-0.60388 7.37453,-1.96001c2.07189,-1.33354 5.1639,-6.11016 5.1639,-6.11016c0,0 -0.03919,3.32477 5.66193,5.31177c6.40112,2.23097 5.33807,0.1168 5.33807,0.1168z" fill="#a2410e" stroke="#000000" stroke-width="0.5" stroke-linecap="butt"/><path d="M68.16001,124.18889c0,0 2.68608,-0.66244 2.68024,3.20804c-0.00294,1.94984 -3.48164,3.15072 -3.48164,3.15072c0,0 2.79373,4.99544 -1.4486,7.82874c-2.22275,1.4845 -2.86033,-4.45935 -2.86033,-4.45935c0,0 -0.74986,3.53912 -2.52791,3.06153c-0.8483,-0.22786 -2.46953,-1.73092 -1.70214,-4.00764c0.66595,-1.97577 3.6863,-4.7811 3.6863,-4.7811c0,0 -4.29127,2.0313 -5.09591,1.49907c-5.21389,-3.44878 4.16311,-6.67293 4.16311,-6.67293c0,0 -7.43981,0.85091 -5.44439,-5.00301c5.48241,-4.62001 8.53129,2.48844 8.53129,2.48844c0,0 -0.37061,-4.10993 1.56862,-4.43548c4.83108,-0.81103 1.93138,8.12298 1.93138,8.12298z" fill="#a2410e" stroke="#000000" stroke-width="0.5" stroke-linecap="butt"/><path d="M70.03501,152.12638c0,0 3.38009,-1.87715 5.00611,-2.56508c1.62398,-0.68707 4.74389,-1.55992 4.74389,-1.55992" fill="none" stroke="#000000" stroke-width="0.5" stroke-linecap="round"/><path d="M74.78501,151.12638c0,0 4.42827,-1.71239 6.51392,-2.44237c2.08101,-0.72835 5.98608,-1.93263 5.98608,-1.93263" fill="none" stroke="#000000" stroke-width="0.5" stroke-linecap="round"/><path d="M103.41001,144.25138c0,0 2.96108,1.13728 4.99751,1.87921c6.14365,2.23829 8.75249,6.24579 8.75249,6.24579" fill="none" stroke="#000000" stroke-width="0.5" stroke-linecap="round"/><path d="M103.89977,132.13675c0.32355,6.41215 -3.01928,11.79214 -7.46642,12.01654c-4.44714,0.22439 -8.31454,-4.79178 -8.63809,-11.20392c-0.32355,-6.41215 3.01928,-11.79214 7.46642,-12.01654c4.44714,-0.2244 8.31454,4.79178 8.63809,11.20392z" fill="#ffffff" stroke="#000000" stroke-width="0.5" stroke-linecap="butt"/><path d="M104.05585,133.58472c0,2.04806 -1,3.875 -1,3.875c0,0 -1.65171,-0.12294 -2.08333,-2.125c-1.25,-5.79806 2.5,-5.54167 2.5,-5.54167c0,0 0.58333,1.74361 0.58333,3.79167z" fill="#000000" stroke="#000000" stroke-width="0.5" stroke-linecap="butt"/><path d="M89.97251,133.95972c0,6.02911 -3.48845,10.91666 -7.79167,10.91666c-4.30322,0 -7.79167,-4.88755 -7.79167,-10.91666c0,-6.02911 3.48845,-10.91667 7.79167,-10.91667c4.30322,0 7.79167,4.88756 7.79167,10.91667z" fill="#ffffff" stroke="#000000" stroke-width="0.5" stroke-linecap="butt"/><path d="M89.88918,134.45972c0,2.43926 -1,4.58333 -1,4.58333c0,0 -2.24493,-1.34748 -2.66666,-3.75c-0.75,-4.27259 2.91666,-5.25 2.91666,-5.25c0,0 0.75,1.97741 0.75,4.41667z" fill="#000000" stroke="#000000" stroke-width="0.5" stroke-linecap="butt"/><path d="M84.18805,114.55496c0,1.01252 -3.52811,3.50823 -5.16667,4.27778c-2.36582,1.11111 -4.20979,1.54071 -4.61111,0.61111c-1.44444,-3.34586 4.46751,-6.38889 6.27778,-6.38889c1.81027,0 3.5,0.48748 3.5,1.5z" fill="#a2410e" stroke="#000000" stroke-width="0.5" stroke-linecap="butt"/><path d="M99.07694,116.16607c-0.63834,0.82511 -4.53215,-2 -6.83333,-2c-2.30119,0 -3.20549,-0.33256 -3.5,-1.33333c-0.66667,-2.26543 1.97767,-1.81857 4.27778,-1.88889c3.63452,-0.11111 7.72222,3.06791 6.05556,5.22222z" fill="#a2410e" stroke="#000000" stroke-width="0.5" stroke-linecap="butt"/><path d="M231.98838,125.07631z" fill="#ffffff" stroke="#000000" stroke-width="0.5" stroke-linecap="butt"/><path d="M220.03893,196.62984c0.35715,8.39471 -3.8058,12.5 -5.85715,12.5c-2.05134,0 -3.92857,-2.21429 -3.92857,-2.21429c0,0 1.45829,-4.39324 2.4855,-6.43586c1.04395,-2.0759 3.00557,-6.05521 3.00557,-6.05521c0,0 4.16553,-0.82946 4.29465,2.20536z" fill="#f0fdd2" stroke="#356905" stroke-width="0.5" stroke-linecap="butt"/><path d="M209.4675,215.10603c-0.24552,1.55874 -1.63095,2.38095 -1.63095,2.38095c0,0 -0.15477,-0.66013 0.13095,-2.66666c0.22244,-1.5622 0.82143,-3.09524 0.82143,-3.09524c0,0 1.10714,0.66015 0.67857,3.38096z" fill="#f0fdd2" stroke="#356905" stroke-width="0.5" stroke-linecap="butt"/><path d="M234.1598,246.20003c0.13947,0.7043 0.01828,1.32162 -0.27066,1.37884c-0.28894,0.05722 -0.63623,-0.46734 -0.7757,-1.17164c-0.13947,-0.7043 -0.01829,-1.32162 0.27065,-1.37884c0.28894,-0.05722 0.63623,0.46734 0.7757,1.17164z" fill="#ff543d" stroke="#ff543d" stroke-width="0.5" stroke-linecap="butt"/><path d="M155.67164,230.6621c0,0 -9.91187,-6.88819 -10.27744,-11.61988c-1.7782,-23.01572 29.11077,-10.88012 29.11077,-10.88012" fill="none" stroke="#000000" stroke-width="1" stroke-linecap="round"/><path d="M210.83831,259.6621c0,0 -16.1725,7.23867 -40.6745,6.29953c-12.48177,-0.47841 -29.65884,-4.79953 -29.65884,-4.79953" fill="none" stroke="#000000" stroke-width="0.5" stroke-linecap="round"/><path d="M159.43413,212.58203c-1.72103,5.7524 -10.58844,3.80943 -10.58844,3.80943c0,0 -9.10857,5.46918 -11.53656,5.44057c-53.04328,-0.625 -18.625,-32.25 -18.625,-32.25c0,0 0.48537,-1.06399 3.80872,0.28791c3.59912,1.46408 2.80909,2.60315 2.80909,2.60315c0,0 -3.04975,4.45094 -3.55338,6.25195c-0.19145,0.68463 -0.26798,5.28717 -0.26798,5.28717l-2.48153,-1.76585c0,0 4.64656,4.03788 8.02067,5.37541c4.18091,1.65734 16.1673,3.44146 16.1673,3.44146c0,0 0.61492,-2.73552 0.99711,-3.2312c6.16828,-8 18.46595,-5.99905 15.25,4.75z" fill="#fbc2f9" stroke="#764d87" stroke-width="0.5" stroke-linecap="butt"/><path d="M176.9891,222.93553l5.46642,-7.33234c0,0 3.97011,1.03833 6.79369,2.54446c5.63687,3.00677 7.56529,9.27201 7.56529,9.27201c0,0 -11.57138,16.50512 -16.96505,16.28515c-16.18366,-0.66002 -23.89541,-27.46131 -23.89541,-27.46131c0,0 4.00017,-7.31615 1.59276,-10.66135c-3.03895,-4.22278 -7.00312,12.69958 -11.36723,3.68671c-2.01621,-4.16393 3.55232,-11.76043 9.03175,-10.2619c11.18417,3.05866 5.84535,12.88573 5.84535,12.88573l1.15858,-2.63192l17.73226,16.79305z" fill="#fbc2f9" stroke="#764d87" stroke-width="0.5" stroke-linecap="butt"/><path d="M204.52025,211.06417l-7.2,16c0,0 -2.50871,-6.55607 -9.11614,-9.24981c-2.54618,-1.03804 -5.88386,-2.35019 -5.88386,-2.35019c0,0 5.84834,-7.92706 9.09128,-11.91644c10.3122,-12.68579 17.50871,-2.18356 17.50871,-2.18356" fill="#1f699a" stroke="#000000" stroke-width="0" stroke-linecap="round"/><path d="M207.35595,200.81417c0,0 -2.69699,8.14651 -8.78571,10.05715c-8.16906,2.56345 -11.58571,-1.45715 -11.58571,-1.45715c0,0 10.04522,-12.38862 13.78571,-12.15714c4.84765,0.3 6.58571,3.55714 6.58571,3.55714z" fill="#acd3f0" stroke="#acd3f0" stroke-width="0.5" stroke-linecap="butt"/><path d="M204.62025,211.06417l-7.2,16c0,0 -2.50871,-6.55607 -9.11614,-9.24981c-2.54618,-1.03804 -5.88386,-2.35019 -5.88386,-2.35019c0,0 5.84834,-7.92706 9.09128,-11.91644c10.3122,-12.68579 17.50871,-2.18356 17.50871,-2.18356" fill="none" stroke="#000000" stroke-width="1" stroke-linecap="round"/><path d="M202.72023,215.96417l3,-3.3" fill="none" stroke="#000000" stroke-width="1" stroke-linecap="round"/><path d="M121.86284,204.02791c0,0 -0.06815,-2.65805 0.44947,-5.20521c2.36908,-11.6581 12.55053,-9.91979 12.55053,-9.91979" fill="none" stroke="#000000" stroke-width="1" stroke-linecap="round"/><path d="M119.61284,188.52791l6.125,2.875" fill="none" stroke="#000000" stroke-width="1" stroke-linecap="round"/><path d="M211.5883,157.39984c0,0 0.04068,3.21922 -0.08989,5.9689c-0.21662,4.56152 7.63525,5.1888 7.63525,5.1888c0,0 -3.11581,10.27002 -5.51866,14.7364c-2.66664,4.95673 -9.7724,13.68644 -9.7724,13.68644c0,0 -3.03496,-0.13233 -5.03975,0.80763c-4.17647,1.95818 -6.21455,4.57016 -6.21455,4.57016c0,0 -18.01085,3.73011 -37.53114,-9.51309c-4.07596,-2.76526 -11.58791,-10.25477 -11.58791,-10.25477c0,0 6.13025,-8.28219 10.05794,-21.23401c5.90659,-19.47731 -3.37112,-63.90759 -0.84366,-70.69456c6.01468,-16.1512 17.54193,-18.97416 38.542,51.32208c5.43293,18.18635 20.36276,15.41602 20.36276,15.41602z" fill="#fbc2f9" stroke="#885c99" stroke-width="1" stroke-linecap="butt"/><path d="M192.92164,201.73317c0,0 -9.60229,6.53113 -34.78574,-6.62524c-6.3095,-3.29622 -15.21426,-12.37476 -15.21426,-12.37476" fill="none" stroke="#000000" stroke-width="1" stroke-linecap="round"/><path d="M223.80614,168.08235c0.21648,2.79885 -1.75685,4.09091 -7.13637,2c-1.02204,-0.39724 -10.91254,-5.76748 -10.91254,-5.76748l-6.24725,0.19579l0.20524,-0.24649l6.02384,-0.00923c0,0 1.24428,-0.98074 2.77915,-2.63473c4.64543,-5.00599 5.06597,-5.42112 6.24247,-5.62877c2.0603,-0.36363 0.66022,2.40095 0.66022,2.40095c0,0 1.85118,-4.09304 3.38096,-4.14948c1.3754,-0.05074 3.01505,1.90697 1.31042,3.77896c-1.87013,2.05372 -7.17313,4.0413 -7.17313,4.0413c0,0 10.41348,0.15566 10.86699,6.01918z" fill="#f602a0" stroke="#680139" stroke-width="0.5" stroke-linecap="butt"/><path d="M194.94573,160.7371c0,0 3.16443,-1.76978 4.32208,-1.20803c6.66466,3.23406 -1.32208,9.45803 -1.32208,9.45803" fill="#fbc2f9" stroke="#885c99" stroke-width="0.5" stroke-linecap="round"/><path d="M219.23039,168.13084c0,0 -3.03099,-0.19427 -4.73112,-0.82676c-1.988,-0.73958 -6.26889,-3.33991 -6.26889,-3.33991c0,0 1.15993,-0.5 5.26667,0.23333c3.18962,0.56956 5.73333,3.93333 5.73333,3.93333z" fill="#620051" stroke="#000000" stroke-width="0.5" stroke-linecap="butt"/><path d="M214.36372,167.13084c0,0 -2.65796,-0.82019 -3.71865,-1.36207c-0.97684,-0.49903 -2.48135,-1.90461 -2.48135,-1.90461c0,0 0.7352,-0.66667 2.43333,-0.26667c1.52312,0.35878 3.76666,3.53334 3.76666,3.53334z" fill="#f9aaaf" stroke="#800e42" stroke-width="0.5" stroke-linecap="butt"/><path d="M220.26069,168.13689c0,0 -3.65939,0.33636 -8.61127,-1.99753c-1.77779,-0.7307 -4.11601,-2.54792 -4.11601,-2.54792" fill="none" stroke="#680139" stroke-width="0.5" stroke-linecap="round"/><path d="M180.52235,143.3014l-5,8.91666" fill="none" stroke="#000000" stroke-width="0.5" stroke-linecap="round"/><path d="M187.35568,138.63473l9,3.25" fill="none" stroke="#000000" stroke-width="0.5" stroke-linecap="round"/><path d="M200.52236,141.5514c0,0 -1.62718,2.8449 -2.44571,3.83883c-0.72586,0.8814 -2.22097,1.82783 -2.22097,1.82783" fill="none" stroke="#000000" stroke-width="0.5" stroke-linecap="round"/><path d="M203.10568,144.30139c0,0 -1.88434,2.39548 -2.85212,3.24058c-1.00318,0.87602 -3.06455,1.92609 -3.06455,1.92609" fill="none" stroke="#000000" stroke-width="0.5" stroke-linecap="round"/><path d="M204.93901,148.13472c0,0 -2.37265,1.33239 -3.4023,1.74426c-0.89619,0.35848 -3.01436,0.42242 -3.01436,0.42242" fill="none" stroke="#000000" stroke-width="0.5" stroke-linecap="round"/><path d="M182.10568,154.88473c0,0 -2.85067,0.84233 -4.75146,0.78322c-1.95857,-0.06091 -3.83187,-0.53322 -3.83187,-0.53322" fill="none" stroke="#000000" stroke-width="0.5" stroke-linecap="round"/><path d="M180.93902,156.13473c0,0 -1.41477,1.55137 -3.67009,2.0742c-1.07424,0.24903 -2.99658,0.4258 -2.99658,0.4258" fill="none" stroke="#000000" stroke-width="0.5" stroke-linecap="round"/><path d="M182.02235,156.96807c0,0 -0.98083,1.914 -1.67568,2.6532c-0.59522,0.63321 -2.24099,1.51346 -2.24099,1.51346" fill="none" stroke="#000000" stroke-width="0.5" stroke-linecap="round"/><path d="M189.87235,154.60139c0,3.03757 -2.39528,5.5 -5.35,5.5c-2.95472,0 -5.35,-2.46243 -5.35,-5.5c0,-3.03757 2.39528,-5.5 5.35,-5.5c2.95472,0 5.35,2.46243 5.35,5.5z" fill="#ffffff" stroke="#000000" stroke-width="0.5" stroke-linecap="butt"/><path d="M189.28526,153.03871c0.26339,1.03475 -0.04375,2.00612 -0.686,2.1696c-0.64226,0.16349 -1.37644,-0.54282 -1.63983,-1.57757c-0.26339,-1.03475 0.04375,-2.00611 0.686,-2.1696c0.64226,-0.16349 1.37644,0.54282 1.63983,1.57757z" fill="#000000" stroke="#000000" stroke-width="0.5" stroke-linecap="butt"/><path d="M189.32235,156.76806c0,0 -0.90545,2.46395 -2.73333,2.9c-2.97873,0.71058 -4.8,-0.5 -4.8,-0.5c0,0 2.32842,-1.86244 3.46667,-2.16666c2.24488,-0.6 4.06667,-0.23333 4.06667,-0.23333z" fill="#c98fdc" stroke="#000000" stroke-width="0.5" stroke-linecap="butt"/><path d="M200.12235,151.0014c0,2.79825 -2.22365,5.06667 -4.96667,5.06667c-2.74302,0 -4.96667,-2.26842 -4.96667,-5.06667c0,-2.79825 2.22365,-5.06667 4.96667,-5.06667c2.74302,0 4.96667,2.26842 4.96667,5.06667z" fill="#ffffff" stroke="#000000" stroke-width="0.5" stroke-linecap="butt"/><path d="M199.29207,149.51978c0.22559,0.91138 -0.04062,1.76136 -0.59459,1.89848c-0.55398,0.13712 -1.18594,-0.49054 -1.41153,-1.40192c-0.22559,-0.91138 0.04062,-1.76136 0.59459,-1.89848c0.55398,-0.13712 1.18594,0.49053 1.41153,1.40192z" fill="#000000" stroke="#000000" stroke-width="0.5" stroke-linecap="butt"/><path d="M199.85568,153.10139c0,0 -1.21647,2.57939 -3.06667,2.9c-3.07777,0.53333 -4.73333,-0.9 -4.73333,-0.9c0,0 2.57408,-1.32845 4.4,-1.76667c1.94443,-0.46667 3.4,-0.23333 3.4,-0.23333z" fill="#c98fdc" stroke="#000000" stroke-width="0.5" stroke-linecap="butt"/><path d="M190.54457,155.27917c0,5.18534 -5.39909,7.94445 -12.33333,7.94445c-3.71283,0 -10.03312,-2.63947 -12.47285,-7.8528c-1.88206,-4.02166 -1.29483,-8.6472 -1.29483,-8.6472c0,0 2.1838,-1.68792 5.00862,-2.46957c2.49098,-0.68928 5.41976,-0.51209 8.64794,-0.14155c8.71202,1 12.44445,5.98133 12.44445,11.16667z" fill="none" stroke="#000000" stroke-width="1" stroke-linecap="butt"/><path d="M166.01894,150.3207c-0.82007,2.76802 0.77273,6.5 0.77273,6.5c0,0 -1.60418,-2.68577 -2.25364,-4.42642c-0.5907,-1.58317 -0.15545,-5.61903 -0.15545,-5.61903c0,0 2.34292,-1.52032 3.6673,-2.02883c2.54796,-0.97831 6.28725,-0.83481 6.28725,-0.83481c0,0 -6.68181,0.88579 -8.31818,6.4091z" fill="#000000" stroke="#000000" stroke-width="0.5" stroke-linecap="butt"/><path d="M208.65531,143.8207c-0.48816,5.60204 -4.72019,11.78188 -9.36364,12.27272c-6.24381,0.66001 -7.77836,-1.47894 -9.18082,-3.637c-1.68831,-2.59792 -2.12739,-5.91385 -1.54645,-8.363c0.82239,-3.46703 2.83819,-7.66044 6.6608,-9.86675c3.66373,-2.11461 9.15738,-2.31507 9.15738,-2.31507c0,0 4.81819,5.64947 4.27273,11.9091z" fill="none" stroke="#000000" stroke-width="1" stroke-linecap="butt"/><path d="M153.80568,159.58473l-1.4,-5l12.2,-1.5l0.8,2.9z" fill="#000000" stroke="#000000" stroke-width="0.5" stroke-linecap="butt"/><path d="M186.62008,130.71102c0,0 -0.87549,9.97835 -11.44378,8.36005c-2.63316,-0.40321 -6.10134,-6.21626 -6.10134,-6.21626c0,0 3.37661,9.11207 -3.17981,10.133c-2.57194,0.40049 -5.63843,-2.22612 -5.63843,-2.22612c0,0 5.06341,7.21598 0.25379,10.29501c-1.35411,1.05685 -3.05212,1.60174 -3.05212,1.60174c0,0 4.9548,5.66128 1.70612,7.89703c-0.15231,0.10482 -2.54288,0.31347 -2.54288,0.31347c0,0 3.95916,5.61836 -2.27241,8.18505c-1.54762,0.63744 -5.1386,-1.2293 -5.1386,-1.2293l1.83408,1.00806l-5.23066,8.72613l-6.22467,-0.21471c0,0 -2.53396,-2.52521 -2.78114,-4.19514c-1.00152,-6.76618 7.77842,-5.75117 7.77842,-5.75117c0,0 -2.37295,-1.90371 -2.11311,-2.67196c0.88467,-2.6157 3.35849,-1.80988 3.35849,-1.80988c0,0 -0.98892,-0.00634 -2.52458,-2.03992c-6.1429,-8.13469 5.29531,-7.8372 5.29531,-7.8372c0,0 -5.6162,-3.97446 -4.85325,-7.6375c0.72063,-3.45985 9.67056,-3.29035 9.67056,-3.29035c0,0 -6.26688,-1.94462 -11.0877,-5.76909c-6.04886,-4.79871 -2.88106,-10.8156 -1.81006,-12.29933c3.63828,-5.04037 10.62343,-6.51573 10.62343,-6.51573c0,0 -10.52798,2.07873 -8.34679,-7.42268c1.35623,-5.90784 7.99982,-6.79229 7.99982,-6.79229c0,0 -9.51933,-6.69088 -7.10084,-13.18596c2.12114,-5.6965 7.92675,-4.90914 7.92675,-4.90914c0,0 -6.65176,-17.65462 9.49538,-16.90578c16.46311,0.76349 10.32622,18.57954 10.32622,18.57954c0,0 2.68322,-0.5853 5.20871,2.33606c2.65405,3.07008 0.89508,8.531 0.89508,8.531c0,0 5.03687,-8.12363 11.95971,-4.40963c9.86524,5.29256 0.20526,18.08825 0.20526,18.08825c0,0 6.17881,-4.11444 10.33016,0.80282c6.77197,8.02136 2.90856,15.11504 -1.11594,17.6825c-5.24313,3.3449 -12.30921,0.78945 -12.30921,0.78945z" fill="#020053" stroke="#0c04d3" stroke-width="1" stroke-linecap="butt"/><path d="M152.41273,182.76562c0,0.88979 -0.29848,1.61111 -0.66667,1.61111c-0.36819,0 -0.66667,-0.72132 -0.66667,-1.61111c0,-0.88979 0.29848,-1.61111 0.66667,-1.61111c0.36819,0 0.66667,0.72132 0.66667,1.61111z" fill="#885c99" stroke="#885c99" stroke-width="0.5" stroke-linecap="butt"/><path d="M455.67164,227.07877c0,0 -7.47444,5.75 -15.66667,5.75c-8.19223,0 -18.5,-10.91667 -18.5,-10.91667l6.27129,-8.49284c0,0 7.91603,4.95212 12.01606,5.49061c4.84972,0.63696 13.37932,1.1689 13.37932,1.1689z" fill="#837a01" stroke="#000000" stroke-width="0.5" stroke-linecap="butt"/><path d="M423.7857,148.30096c0,24.35575 -23.45,40.95 -23.45,40.95c0,0 -14.69887,-11.88621 -19.57106,-17.40223c-4.41627,-4.99985 -9.07894,-13.79778 -9.07894,-13.79778c0,0 4.87571,-3.8133 6.25251,-8.83959c2.50464,-9.14373 11.28479,-21.52908 11.28479,-21.52908c0,0 1.18126,-13.30687 5.86302,-21.96632c5.66672,-10.48124 11.39213,-14.78088 14.39969,-15.86501c8.76773,-3.16048 12.2251,1.37332 12.2251,1.37332c0,0 3.43186,0.39535 8.25483,2.22464c7.2872,2.76393 9.42107,7.52086 9.26178,10.02652c-0.53931,8.48362 -23.04589,-4.91785 -23.04589,-4.91785l5.08715,2.85458c0,0 -0.9094,2.75894 -5.55231,1.47568c-0.94662,-0.26164 -2.67018,-0.97873 -2.67018,-0.97873c0,0 2.09488,1.12122 3.38665,1.35248c0.88632,0.15868 3.49169,-0.34867 3.49169,-0.34867c0,0 3.94314,5.05975 3.5968,9.10549c-0.2072,2.42037 -0.24494,6.51221 -0.24494,6.51221c0,0 4.60251,3.74206 7.78126,9.82258c3.40411,6.51159 5.64566,13.82303 1.88304,17.6621c-3.3879,3.45673 -9.15497,1.23903 -9.15497,2.28564z" fill="#ffc78e" stroke="#8b440e" stroke-width="0.5" stroke-linecap="butt"/><path d="M362.33879,269.67101c0,0 0.2469,3.55379 -0.84403,6.29953c-1.12011,2.81919 -2.92345,3.41148 -2.92345,3.41148c0,0 -1.65319,4.67795 -4.16109,5.11041c-2.97037,0.51221 -2.56457,-2.56681 -1.50029,-4.38698c0.90334,-1.54492 1.72959,-1.91489 1.72959,-1.91489c0,0 -2.01501,-1.10839 -2.15787,-4.30528c-0.13472,-3.01484 0.35714,-4.46428 0.35714,-4.46428z" fill="#ffc78e" stroke="#8b440e" stroke-width="0.5" stroke-linecap="butt"/><path d="M355.26737,274.77816c0,0 2.20868,4.87163 -0.59337,4.59028c-1.29346,-0.12988 -0.62092,3.19543 -0.62092,3.19543" fill="none" stroke="#8b440e" stroke-width="0.5" stroke-linecap="round"/><path d="M411.62451,268.99244c0,0 -1.27382,19.57143 -7.85715,15.28572c-1.6861,-1.09764 1.28571,-5.57143 1.28571,-5.57143c0,0 -1.89351,-0.79599 -3.24241,-4.23048c-0.55316,-1.40841 0.02813,-4.62667 0.02813,-4.62667z" fill="#ffc78e" stroke="#8b440e" stroke-width="0.5" stroke-linecap="butt"/><path d="M402.76736,269.13529c0,0 2.54828,4.34371 1.87973,6.25524c-0.20417,0.58377 0.43732,2.32827 1.49079,1.88288c1.23913,-0.52388 0.12948,2.14759 0.12948,2.14759" fill="none" stroke="#8b440e" stroke-width="0.5" stroke-linecap="round"/><path d="M421.17509,250.67574c0,0 4.09819,7.47063 -5.37305,12.65878c-1.39387,0.76353 -6.03603,1.13597 -6.03603,1.13597c0,0 0.9613,0.04386 1.69207,-0.03223c0.83479,-0.08692 3.04623,-0.46115 3.04623,-0.46115l1.77156,5.02463c0,0 -2.90125,3.467 -10.52888,2.57883c-2.81558,0.31466 -5.83972,-0.74955 -5.83972,-0.74955l-0.47366,-4.37466l4.96415,-1.39239c0,0 -2.30949,0.80887 -5.33484,1.37008c-1.55853,0.28911 -6.78745,1.65536 -7.48452,1.66859c-17.98179,0.71128 -25.74708,-3.61253 -25.74708,-3.61253l0.04378,-4.56892c0,0 -0.23543,2.10735 -0.17765,4.65678c0.07585,3.34654 0.19677,7.32334 -2.59296,6.97763c-2.29361,-0.28422 -15.84814,0.76581 -15.10898,-3.34c0.94223,-5.23383 0.51344,-10.88294 0.51344,-10.88294l-0.02742,3.16091c0,0 -15.91565,-2.19806 -16.22233,-14.23375c-0.1871,-7.343 7.30681,-13.4659 7.30681,-13.4659z" fill="#005c82" stroke="#000000" stroke-width="0.5" stroke-linecap="butt"/><path d="M423.91904,217.50372c15.5,20.7959 2.13203,33.44831 -16.82118,39.47955c-18.82467,7.83557 -65.77049,-14.92122 -65.77049,-14.92122l5.25716,2.78143c0,0 -16.75508,-1.81785 -15.23753,-14.49215c-0.28713,-7.00628 7.98469,-10.54682 7.98469,-10.54682l-1.80897,0.86511l0.09631,-13.23256c0,0 -4.50384,-42.06666 24.73333,-48.66666c5.48688,-1.23861 11.69559,5.89126 18.28451,13.49478c12.43091,14.3451 24.74049,33.88479 24.74049,44.82189z" fill="#837a01" stroke="#000000" stroke-width="0.5" stroke-linecap="butt"/><path d="M404.99612,218.13804c0,0 3.69146,15.55637 1.67933,21.68687c-3.71126,15.55034 -15.75625,18.31314 -15.75625,18.31314" fill="none" stroke="#000000" stroke-width="0.5" stroke-linecap="round"/><path d="M409.05217,247.85774c0.09905,0.72305 -0.58107,1.41337 -1.51908,1.54186c-0.93801,0.1285 -1.77872,-0.35349 -1.87777,-1.07654c-0.09905,-0.72305 0.58107,-1.41337 1.51908,-1.54186c0.93801,-0.1285 1.77872,0.35349 1.87777,1.07654z" fill="#d0c81b" stroke="#000000" stroke-width="0.5" stroke-linecap="butt"/><path d="M371.78004,189.09481c0,0 2.26675,10.64976 3.37223,14.73179c0.77725,2.87005 4.26765,8.76782 4.26765,8.76782c0,0 0.25536,-0.38591 1.1954,-0.3989c1.62342,-0.02244 0.6248,2.74935 0.6248,2.74935l9.31038,-5.32791l7.00673,8.60894c0,0 -15.5933,20.337 -27.57995,13.1623c-5.51558,-3.30139 -12.73057,-20.89337 -12.73057,-20.89337" fill="#837a01" stroke="#000000" stroke-width="0.5" stroke-linecap="round"/><path d="M377.96057,222.77045c0,0 -0.29545,-2.76077 -0.12163,-3.97787c0.2911,-2.0384 1.37163,-3.27213 1.37163,-3.27213" fill="none" stroke="#000000" stroke-width="0.5" stroke-linecap="round"/><path d="M374.62723,218.52045c0,0 1.02663,-1.46437 1.56,-2.49667c0.96884,-1.87511 3.95316,-3.59105 3.95316,-3.59105" fill="none" stroke="#000000" stroke-width="0.5" stroke-linecap="round"/><path d="M370.98821,231.55902c-2.39011,-1.05046 -5.52029,-5.98024 -5.52029,-5.98024c0,0 1.83109,-0.60604 3.21067,-0.74134c2.56581,-0.25164 3.19111,3.76155 5.30613,3.38053c7.8318,-1.41089 7.61654,2.96081 7.61654,2.96081c0,0 -4.31237,3.1494 -10.61305,0.38024z" fill="#a14013" stroke="#6d1b00" stroke-width="0.5" stroke-linecap="round"/><path d="M367.80126,225.97878l-0.26666,-2.33333" fill="none" stroke="#000000" stroke-width="0.5" stroke-linecap="round"/><path d="M377.81001,149.55161c0,0 -1.87736,3.36276 -2.72339,4.67794c-0.6798,1.05677 -1.96403,2.60885 -1.96403,2.60885c0,0 2.25788,7.39633 5.41773,11.60511c7.17223,9.55308 14.13612,11.19473 14.13612,11.19473l-1.17893,18.41337c0,0 -21.9375,-10.08337 -32.6875,-38.875c-2.46306,-6.5968 5.14689,-12.125 11.1875,-12.125c6.04061,0 7.8125,2.5 7.8125,2.5z" fill="#d3c701" stroke="#000000" stroke-width="0.5" stroke-linecap="butt"/><path d="M368.93459,225.77878l-0.33334,-1.93333" fill="none" stroke="#000000" stroke-width="0.5" stroke-linecap="round"/><path d="M377.80126,229.24545l0.4,-2.2" fill="none" stroke="#000000" stroke-width="0.5" stroke-linecap="round"/><path d="M380.40125,228.04545l-0.46666,1.66666" fill="none" stroke="#000000" stroke-width="0.5" stroke-linecap="round"/><path d="M445.12164,170.2871c0,0 1.63792,2.76765 2.79488,6.84299c0.94824,3.34016 2.13078,9.74493 0.5322,11.14724c-3.25917,2.85899 -2.9236,-8.76063 -2.9236,-8.76063c0,0 1.63942,10.89725 -1.97983,18.47699c-0.67615,1.41607 -1.10113,4.60118 -4.57855,7.78581c-1.84008,1.68515 -3.26914,3.05156 -3.26914,3.05156c0,0 -0.41518,2.10171 1.44563,2.9088c1.83998,0.79806 5.9733,0.55836 6.49069,0.72677c5.27525,1.71707 -3.49546,3.39955 -3.49546,3.39955c0,0 8.63421,-1.61457 10.36676,-0.03807c0.05008,0.04557 2.0971,1.85103 -3.92393,3.31217c-3.84814,0.93383 -10.22906,0.52397 -10.22906,0.52397c0,0 10.07021,1.53858 5.73608,3.77285c-5.20094,2.68111 -13.26027,-1.72077 -13.26027,-1.72077l1.72195,0.96791c0,0 -7.36509,0.81772 -8.47728,0.82634c-28.68617,0.22218 -36.0854,-30.06463 -34.53994,-37.8568c0.33287,-1.67834 0.9025,-3.53396 0.9025,-3.53396c0,0 -1.06858,10.6921 -3.16454,6.75689c-1.02373,-1.92209 1.63659,-8.76201 1.63659,-8.76201c0,0 -4.44032,6.02603 -3.18791,0.24013c0.28994,-1.33947 3.13374,-9.19504 3.13374,-9.19504c0,0 -4.46063,5.64852 -3.49846,1.13595c0.26029,-1.22075 2.68298,-4.46739 4.48218,-7.46748c1.47019,-2.45147 2.40324,-4.85918 2.40324,-4.85918c0,0 -5.76279,-2.38925 -5.14085,-6.78486c0.59653,-4.21608 4.84515,-6.47491 4.84515,-6.47491c0,0 -3.83634,1.58482 -2.20282,-0.59661c0.32799,-0.43801 1.3004,-1.59394 3.82707,-2.09944c3.05971,-0.61215 5.87133,0.4996 5.87133,0.4996c0,0 -0.86689,-0.58188 -1.95159,-0.80073c-2.21598,-0.4471 -5.34104,-0.82159 -3.84102,-1.72716c4.18702,-2.52773 14.68587,2.22162 14.82983,2.14104c2.38209,-1.33334 13.43166,-0.59332 13.43166,-0.59332l-3.61916,-0.21998c0,0 0.96959,-1.28293 3.70082,-1.23301c1.16708,0.00283 6.31241,1.12208 10.27785,0.46622c2.35014,-0.3887 4.54534,-2.49842 4.54534,-2.49842c0,0 2.11285,-5.86964 10.94706,-2.52706c1.6854,2.36744 -3.45508,1.88964 -3.45508,1.88964c0,0 3.63772,-0.09125 6.51452,2.81252c6.90172,6.96646 3.85697,8.8385 2.51259,7.37855c-1.81796,-1.97424 -5.51713,-4.93206 -5.51713,-4.93206c0,0 5.50132,4.67521 5.01326,8.80006c-0.5578,4.71422 -5.73869,6.63513 -5.73869,6.63513c0,0 4.74813,5.72379 5.56921,12.0234c0.99223,7.61273 -5.5378,-1.84056 -5.5378,-1.84056z" fill="#c0c4cd" stroke="#000000" stroke-width="0.5" stroke-linecap="butt"/><path d="M402.747,214.06652c0,1.60852 -4.50805,2.2713 -4.50805,2.2713c0,0 -0.05035,4.15541 -1.49195,3.76203c-5.61915,-1.53333 -8.13333,-6.38182 -8.13333,-9.56666c0,-3.18484 4.39999,-1.9 4.39999,-1.9c0,0 1.85345,-4.55652 3.85764,-3.81513c2.18775,0.80928 5.8757,7.58631 5.8757,9.24847z" fill="#cec200" stroke="#000000" stroke-width="0.5" stroke-linecap="butt"/><path d="M412.37458,233.63263c0.17715,0.72829 -0.45608,1.50765 -1.41436,1.74075c-0.95828,0.2331 -1.87873,-0.16834 -2.05588,-0.89664c-0.17715,-0.72829 0.45608,-1.50765 1.41436,-1.74075c0.95828,-0.2331 1.87873,0.16834 2.05588,0.89664z" fill="#d0c81b" stroke="#000000" stroke-width="0.5" stroke-linecap="butt"/><path d="M389.85099,214.4418c0,0 0.44666,-2.14339 1.12986,-1.98738c1.37549,0.31409 2.68037,-0.49953 3.55177,-2.43787c0.51931,-1.15515 1.8136,-0.62237 1.8136,-0.62237" fill="none" stroke="#000000" stroke-width="0.5" stroke-linecap="round"/><path d="M398.63193,212.89417c0,0 -1.67205,0.78863 -2.0014,1.81898c-0.368,1.15128 -2.08002,1.59657 -2.2372,2.44726c-0.18142,0.98186 -1.50426,1.17185 -1.50426,1.17185" fill="none" stroke="#000000" stroke-width="0.5" stroke-linecap="round"/><path d="M398.49622,216.24894c0,0 -0.81354,-0.0516 -1.0964,-0.1416c-0.22987,-0.07314 -0.62503,-0.14173 -0.62503,-0.14173" fill="none" stroke="#000000" stroke-width="0.5" stroke-linecap="round"/><path d="M392.93193,209.42989c0,0 0.16011,-1.25265 0.4412,-1.67949c0.34756,-0.52777 1.03737,-1.59908 1.03737,-1.59908" fill="none" stroke="#000000" stroke-width="0.5" stroke-linecap="round"/><path d="M403.32186,208.21964c0,0 -0.34434,1.53923 -1.82918,2.84953c-0.71269,0.62892 -1.80415,1.71714 -1.80415,1.71714c0,0 -2.43158,-0.92173 -3.29586,-3.66895c-0.29325,-0.93213 -0.07081,-2.76438 -0.07081,-2.76438c0,0 1.80582,-0.7913 3.56667,-1.96666c5.43054,-4.86638 19.26494,-5.02715 14.67345,0.8021c-0.64502,0.8189 -4.16343,1.24435 -6.32774,1.088c-0.8128,-0.05872 -1.89273,-0.71487 -1.89273,-0.71487l2.00745,0.84109c0,0 -1.54263,1.46138 -2.67152,1.7417c-1.26367,0.31379 -2.35557,0.0753 -2.35557,0.0753z" fill="#ffc78e" stroke="#8b440e" stroke-width="0.5" stroke-linecap="butt"/><path d="M400.17121,213.23505c0,0 -2.51708,-0.59038 -3.84,-4.16604c-0.42666,-1.15323 -0.10444,-3.33396 -0.10444,-3.33396" fill="none" stroke="#000000" stroke-width="0.5" stroke-linecap="round"/><path d="M398.8552,207.31964c0,0 0.89649,-0.77353 2.518,-2.10297c3.32451,-2.72568 9.94867,-3.16369 9.94867,-3.16369" fill="none" stroke="#8b440e" stroke-width="0.5" stroke-linecap="round"/><path d="M366.12819,174.15389c0,0 0.7767,-3.46931 2.46737,-5.0183c4.308,-3.947 8.60082,-2.76579 8.60082,-2.76579" fill="none" stroke="#000000" stroke-width="0.5" stroke-linecap="round"/><path d="M376.41229,186.48344c0,0 0.33864,-3.80695 1.74928,-7.16708c0.73825,-2.35325 6.42118,-4.23065 6.42118,-4.23065" fill="none" stroke="#000000" stroke-width="0.5" stroke-linecap="round"/><path d="M360.20774,162.15389c0,0 1.23254,-3.14021 3.63363,-3.87105c6.64132,-2.02149 9.67318,0.63242 9.67318,0.63242" fill="none" stroke="#000000" stroke-width="0.5" stroke-linecap="round"/><path d="M363.31001,149.05161c0,0 2.22359,0.01213 3.78269,0.41154c4.36163,1.11736 6.56959,6.36119 6.56959,6.36119" fill="none" stroke="#000000" stroke-width="0.5" stroke-linecap="round"/><path d="M372.52592,147.26753c0,0 2.12938,1.99478 2.47262,3.18497c0.22998,0.79748 0.52738,3.01958 0.52738,3.01958" fill="none" stroke="#000000" stroke-width="0.5" stroke-linecap="round"/><path d="M302.99931,154.50193l2.17887,-7.77063c0,0 -4.83147,-4.85534 -8.05622,-9.40546c-3.40647,-4.80652 -7.28931,-11.3239 -7.28931,-11.3239c0,0 17.5946,-16.32405 26.41417,-23.35626c7.76907,-6.19461 23.7525,-16.64374 23.7525,-16.64374c0,0 5.90188,15.33971 13.83977,28.19104c8.55944,13.85763 18.16024,28.30896 18.16024,28.30896c0,0 -12.02241,4.51095 -16.90211,6.48673c-3.08369,1.24857 -9.54863,4.22307 -9.54863,4.22307l1.56695,7.29173c0,0 -1.57239,3.55737 -9.78746,4.10704c-4.86075,0.32524 -8.07378,0.29604 -8.07378,0.29604c0,0 -5.8777,1.32851 -6.7056,1.21588c-3.47575,-0.47284 -4.60249,-3.58876 -4.60249,-3.58876c0,0 -3.78116,-0.99861 -8.00597,-3.12611c-2.79535,-1.40767 -6.94092,-4.90562 -6.94092,-4.90562z" fill="#c9abff" stroke="#000000" stroke-width="0.5" stroke-linecap="butt"/><path d="M301.82598,157.73383c0,2.68611 -8.5,7.13636 -8.5,7.13636c0,0 -1.04545,-0.99571 -1.04545,-3.68182c0,-2.68611 0.77273,-4.77273 0.77273,-4.77273c0,0 8.77273,-1.36793 8.77273,1.31818z" fill="#feef9a" stroke="#000000" stroke-width="0.5" stroke-linecap="butt"/><path d="M286.04308,178.35607l-4.08436,13.65507l-11.52014,-12.66887c0,0 -8.12199,-0.8506 -17.57564,-4.0084c-4.95076,-1.6537 -13.84368,-5.95399 -13.84368,-5.95399" fill="none" stroke="#000000" stroke-width="1" stroke-linecap="round"/><path d="M290.12826,187.52639c-15.12908,-9.21094 -11.24035,-12.35305 -2.12679,-12.12375c3.52055,-0.14263 7.41251,-4.7334 7.41251,-4.7334c0,0 1.36586,6.47926 9.58105,9.61316c37.93053,14.46957 41.13323,-0.32745 41.13323,-0.32745l0.42857,19.00001c0,0 -6.09614,1.0298 -13.29206,0.69642c-11.93342,-0.55286 -29.14163,-3.60457 -43.13652,-12.12499z" fill="#f54826" stroke="#000000" stroke-width="0.5" stroke-linecap="butt"/><path d="M292.62562,187.88595c1.63254,1.61364 -1.86153,-1.26042 -3.10417,-1.26042c-1.24264,0 -7.83333,-4.63165 -7.83333,-6.92708c0,-2.29543 0.88236,-1.34375 2,-1.40625c1.2407,-0.06938 2.0625,2.79832 8.9375,9.59375z" fill="#a0062c" stroke="#a0062c" stroke-width="0.5" stroke-linecap="butt"/><path d="M289.2732,144.49613c0,0 -8.08404,12.40536 -15.40645,13.51004c-40.03001,6.03906 -34.56073,-31.714 -34.56073,-31.714c0,0 1.59743,2.41204 6.39825,6.4171c4.28646,3.57595 10.20185,3.9736 11.55924,4.02378c22.2917,0.82414 28.84898,-12.55835 28.84898,-12.55835" fill="none" stroke="#000000" stroke-width="1.5" stroke-linecap="round"/><path d="M236.94424,125.74613c0,0 1.12846,-0.73316 1.6215,-1.0745c0.57702,-0.39948 2.6285,-0.4255 2.6285,-0.4255" fill="none" stroke="#000000" stroke-width="0.5" stroke-linecap="round"/><path d="M276.61338,117.26381c0,7.49036 -1.84848,11.8125 -6.75,11.8125c-4.90152,0 -10.17242,-4.44988 -10.375,-11.9375c-0.25,-9.24036 0.98044,-14.67628 5.875,-14.9375c7.02652,-0.375 11.25,7.57214 11.25,15.0625z" fill="#ffffff" stroke="#000000" stroke-width="0.5" stroke-linecap="butt"/><path d="M260.87231,119.82631c0.50738,7.39902 -1.56142,12.80358 -6.57143,12.80358c-5.01001,0 -11.22894,-5.65193 -11.69643,-13.05358c-0.5,-7.91639 -0.0287,-13.04799 4.82143,-14.30357c6.76001,-1.75 12.94643,7.26217 13.44643,14.55357z" fill="#ffffff" stroke="#000000" stroke-width="0.5" stroke-linecap="butt"/><path d="M246.32977,95.91669l-5.29546,5.54799l6.5411,-3.93879l-6.12257,5.87542" fill="none" stroke="#000000" stroke-width="1.5" stroke-linecap="round"/><path d="M265.91554,93.82806l-7.86131,-0.54378l7.51639,-1.34313l-6.48478,-0.4574" data-paper-data="{&quot;index&quot;:null}" fill="none" stroke="#000000" stroke-width="1.5" stroke-linecap="round"/><path d="M255.10944,119.31809c0.43831,1.92624 -0.07948,3.68644 -1.15652,3.93151c-1.07704,0.24507 -2.30547,-1.11778 -2.74377,-3.04402c-0.43831,-1.92624 0.07948,-3.68644 1.15652,-3.93152c1.07704,-0.24507 2.30547,1.11778 2.74377,3.04403z" fill="#000000" stroke="none" stroke-width="0" stroke-linecap="butt"/><path d="M267.35483,117.56623c0.34431,1.88049 -0.3251,3.57861 -1.49518,3.79285c-1.17008,0.21424 -2.39775,-1.13652 -2.74207,-3.01702c-0.34431,-1.88049 0.32511,-3.57861 1.49519,-3.79285c1.17008,-0.21424 2.39774,1.13652 2.74206,3.01701z" fill="#000000" stroke="none" stroke-width="0" stroke-linecap="butt"/><path d="M240.55634,165.18483c0,4.69442 -2.13341,4.2278 -5.54545,6.04546c-2.04781,1.09091 -10.74367,0.28668 -9.45455,-4.22727c1.18182,-4.13823 5.36758,-2.74523 5.36758,-2.74523c0,0 -2.68659,-0.98086 -3.41898,-4.67156c-0.45607,-3.90305 5.32413,-5.71958 5.32413,-5.71958l0.10753,3.40101c0,0 0.09201,1.37161 2.26214,2.34945c2.96428,1.33568 5.3576,3.93751 5.3576,5.56772z" fill="#c9abff" stroke="#000000" stroke-width="0.5" stroke-linecap="butt"/><path d="M282.27396,178.21432c0,0 1.38314,-0.62897 2.3377,0.45064c4.56017,5.15753 8.02342,8.79936 8.02342,8.79936" fill="none" stroke="#000000" stroke-width="0.5" stroke-linecap="round"/><path d="M272.59846,183.37676l-3.4005,-1.4058l-5.19958,7.90085c0,0 -6.62848,-1.72194 -12.54184,-4.65502c-4.93054,-2.4456 -11.19142,-7.36781 -11.19142,-7.36781" fill="none" stroke="#000000" stroke-width="0.5" stroke-linecap="round"/><path d="M246.84163,213.15714c0,0 -1.39077,10.23824 -0.72349,20.80412c0.96663,15.30596 -0.57361,24.93471 -5.72651,23.59588c-4.57029,-1.18745 -14.45,-12.40365 -15.25,-33.9c-0.37177,-9.98944 -0.15,-11 -0.15,-11z" fill="#ff9186" stroke="#ff543d" stroke-width="1" stroke-linecap="butt"/><path d="M283.37241,210.06626c5.33333,2.76979 3.79775,7.60926 1.95161,12.20094c-3.75494,6.46919 -7.89636,1.93008 -13.22008,-3.25537c-1.37853,-1.34273 -3.21829,-0.90122 -3.81694,-0.352c-2.88122,2.64332 5.37246,10.70372 2.58541,13.18421c-3.99498,3.55555 -13.82248,4.48107 -17.47449,-4.46894c0.06875,-3.0097 -1.60423,-3.99816 4.51437,-7.81352c2.51427,-1.56781 1.06206,-4.21772 -0.08644,-3.64574c-9.81651,4.88886 -13.6446,-0.03547 -14.1201,-1.96069c-2.96133,-11.98995 5.19884,-11.04165 7.85253,-11.10554c6.17189,-0.14858 5.13989,4.83451 8.15043,5.98347c2.19557,0.83793 5.25313,-0.67816 2.11949,-5.68807c-2.47105,-3.95059 -4.19242,-8.79812 3.37755,-9.07875c2.479,-0.0919 7.86428,0.54429 10.17431,1.91029c1.43647,0.84943 2.81017,4.48963 0.49002,7.35479c-1.40092,1.73 -5.15205,2.60407 -5.08408,6.87588c0.09139,5.74347 8.61337,-2.20431 12.58642,-0.14096z" fill="#f0fdd2" stroke="#356905" stroke-width="0.5" stroke-linecap="butt"/><path d="M250.14165,199.75715l0.32919,21.37993c0,0 -7.09962,5.08049 -20.90603,0.36863c-4.00488,-0.61273 -8.14118,-4.81277 -8.14118,-4.81277l5.518,-24.1358" fill="#b2e838" stroke="#000000" stroke-width="0.5" stroke-linecap="round"/><path d="M314.81686,229.62181c0,0 -2.61226,2.18247 -8.0876,5.06831c-2.53505,1.33612 -5.96795,2.93169 -5.96795,2.93169c0,0 -1.51227,-0.95293 -2.6744,-2.61088c-0.71608,-1.02159 -1.2303,-2.17301 -1.38116,-3.94467c-0.26148,-3.07071 2.19887,-4.99383 9.18554,-4.35049c1.34798,0.12412 3.55994,-2.78558 0.75426,-4.57503c-6.67153,-4.25509 -7.04196,-5.63212 -6.88425,-6.40781c1.14317,-5.62244 6.61486,-5.44829 6.61486,-5.44829c0,0 4.10038,6.54415 5.49652,9.77249c1.34114,3.10116 2.94418,9.56469 2.94418,9.56469z" fill="#f0fdd2" stroke="#356905" stroke-width="0.5" stroke-linecap="butt"/><path d="M300.16343,205.50193c0,2.08661 -0.36356,4.50596 -2.12086,6.18045c-7.2883,6.94488 -11.39816,8.37497 -17.61327,6.2005c-1.30313,-1.45959 2.27008,-2.83787 2.27008,-2.83787c0,0 1.19481,-3.61111 1.89397,-5.19867c0.56853,-1.29095 1.99071,-3.62219 1.99071,-3.62219c0,0 -1.02632,-18.16224 1.48413,-19.21428c2.46499,-2.06896 4.66143,0.56346 4.66143,0.56346c0,0 1.04909,-1.81134 2.66597,-1.84474c4.95546,-0.10235 7.24584,3.67151 7.24584,3.67151c0,0 -3.69434,-0.35908 -5.36821,2.3277c-0.61176,0.98195 -0.81016,3.26844 0.1805,6.1344c0.7167,2.0734 2.6515,5.08558 2.6515,5.08558c0,0 0.05822,1.98887 0.05822,2.55415z" fill="#c9abff" stroke="#000000" stroke-width="0.5" stroke-linecap="butt"/><path d="M294.72314,185.90037c0,0 -2.73693,0.47722 -2.60101,4.66732c-0.06953,4.08869 -0.49425,7.57199 -0.4739,9.46803c0.05176,4.82494 0.20288,4.39577 0.20288,4.39577c0,0 -1.51822,5.04254 -2.15814,6.39252c-0.8945,1.88703 -2.67407,4.99179 -2.67407,4.99179l0.94337,-0.11385c0,0 -2.46115,-0.10012 -2.83367,0.98647c-0.46135,1.3457 0.88556,1.98119 0.88556,1.98119" fill="none" stroke="#000000" stroke-width="0.5" stroke-linecap="round"/><path d="M299.68197,177.79574l-11.54546,8.18182" fill="none" stroke="#a0062c" stroke-width="0.5" stroke-linecap="round"/><path d="M308.3211,181.95683l-7.27273,10.52727" fill="none" stroke="#a0062c" stroke-width="0.5" stroke-linecap="round"/><path d="M318.23928,184.87501l-3.99091,13.30909" fill="none" stroke="#a0062c" stroke-width="0.5" stroke-linecap="round"/><path d="M326.94837,197.6841l0.49091,-11.13636" fill="none" stroke="#a0062c" stroke-width="0.5" stroke-linecap="round"/><path d="M337.41201,186.44774l2.13636,11.53636" fill="none" stroke="#a0062c" stroke-width="0.5" stroke-linecap="round"/><path d="M344.84837,189.9841c0,0 -16.18627,7.38006 -39.61494,-1.73192c-8.13127,-3.16245 -16.59895,-12.68197 -16.59895,-12.68197" fill="none" stroke="#a0062c" stroke-width="0.5" stroke-linecap="round"/><path d="M344.6509,189.82925c0,0 14.26382,18.73343 -0.21429,26.5c-10.15257,5.4462 -23.31933,1.53317 -33.95204,-5.21242c-0.29941,-0.18995 -1.30806,-0.23684 -1.59741,-0.42638c-7.81601,-5.12 -11.27882,-10.23219 -12.09341,-15.14692c-0.72902,-4.39847 2.30761,-7.28598 8.94511,-6.47776c11.31041,1.37722 29.26918,9.40633 29.26918,9.40633z" fill="#ff9186" stroke="#ff543d" stroke-width="1" stroke-linecap="butt"/><path d="M320.88274,212.18066c0,7.39448 -7.42454,10.90965 -13.48563,11.96232c-6.78103,1.43393 -6.86214,-2.08506 -6.86214,-2.08506c0,0 -2.01986,0.76297 -3.62115,0.04116c-3.29285,-3.30337 1.53726,-2.64986 1.53726,-2.64986l6.89047,-7.47549c0,0 -0.34763,-10.50772 0.65239,-17.1926c0.3929,-2.62643 2.02738,-5.0386 2.41357,-5.42457c3.34565,-3.34375 4.60805,1.04863 4.60805,1.04863c0,0 0.76625,-1.53341 2.28134,-1.60332c3.94063,-0.18182 21.88738,9.61781 21.88738,9.61781c0,0 1.08252,0.37918 -1.60845,1.64758c-5.23405,2.4671 -18.11722,-5.4704 -18.11722,-5.4704l-0.03384,14.04818c0,0 3.45798,0.48441 3.45798,3.53562z" fill="#c9abff" stroke="#000000" stroke-width="0.5" stroke-linecap="butt"/><path d="M313.92154,189.41314c0,0 -1.78792,1.54611 -2.58878,7.15964c-0.6045,4.23714 -1.6217,15.93902 -1.6217,15.93902c0,0 -1.60886,3.50223 -3.12142,5.14754c-2.09517,2.27906 -3.25694,3.22148 -3.25694,3.22148l1.50143,0.10129c0,0 -2.7182,-0.37823 -3.36736,-0.04155c-0.40123,0.20809 -0.8829,1.05051 -0.8829,1.05051" fill="none" stroke="#000000" stroke-width="0.5" stroke-linecap="round"/><path d="M342.17648,214.12582c0.09679,0.28527 -0.38363,0.70615 -1.07304,0.94006c-0.68941,0.23391 -1.32675,0.19227 -1.42354,-0.09301c-0.09679,-0.28527 0.38363,-0.70615 1.07304,-0.94006c0.68941,-0.23391 1.32675,-0.19227 1.42354,0.09301z" fill="#ff543d" stroke="#ff543d" stroke-width="0.5" stroke-linecap="butt"/><path d="M344.8439,212.1022c0.1113,0.19662 -0.18811,0.57656 -0.66874,0.84861c-0.48063,0.27205 -0.96048,0.33321 -1.07177,0.13658c-0.1113,-0.19662 0.18811,-0.57656 0.66874,-0.84861c0.48063,-0.27205 0.96048,-0.33321 1.07177,-0.13658z" fill="#ff543d" stroke="#ff543d" stroke-width="0.5" stroke-linecap="butt"/><path d="M346.03263,164.27402l-1.14286,18.64285c0,0 -17.02416,11.83556 -42.89756,-3.86078c-7.56987,-4.59233 -7.531,-10.78207 -7.531,-10.78207c0,0 0.78846,-3.87059 1.95256,-6.51374c1.93991,-4.40471 5.90458,-7.98625 5.90458,-7.98625l15.72026,8.92263c0,0 1.63394,2.66121 4.34818,3.00345c3.61003,0.45519 5.25041,-2.18097 5.25041,-2.18097z" fill="#feef9a" stroke="#000000" stroke-width="0.5" stroke-linecap="butt"/><path d="M345.7526,200.20835c-4.97766,-2.19138 -1.6875,-28.1625 -1.6875,-28.1625l4.4625,0.125c0,0 1.53564,13.44333 2.05061,16.86461c0.24063,1.59867 0.90461,2.76852 0.90461,2.76852l-0.43691,-1.18492c0,0 7.11135,-3.34652 8.65668,-2.44821c1.63914,0.95284 -1.37427,17.57388 -13.95,12.0375z" fill="#c9abff" stroke="#000000" stroke-width="0.5" stroke-linecap="butt"/><path d="M351.4526,170.60834c0.7,2.20406 -2.84683,3.75 -5.125,3.75c-2.27817,0 -5.97553,-0.58396 -5.425,-3.65c1.28538,-7.15865 1.71427,-9.89274 3.825,-10.75c4.67817,-1.9 5.51299,6.83378 6.725,10.65z" fill="#feef9a" stroke="#000000" stroke-width="0.5" stroke-linecap="butt"/><path d="M312.60373,171.32153c-0.4727,1.1084 -1.99778,1.51995 -3.40637,0.91923c-1.40859,-0.60072 -2.16728,-1.98623 -1.69458,-3.09463c0.4727,-1.1084 1.99778,-1.51995 3.40637,-0.91923c1.40859,0.60072 2.16727,1.98624 1.69457,3.09463z" fill="#feef9a" stroke="#000000" stroke-width="0.5" stroke-linecap="butt"/><path d="M315.25325,161.20655c0,0 -7.30593,4.30652 -11.71436,-1.5857c-1.6447,-3.43748 -0.80382,-5.47793 -0.80382,-5.47793" fill="none" stroke="#000000" stroke-width="0.5" stroke-linecap="round"/><path d="M340.18962,164.14292c0,0 -9.4184,8.82789 -20.05549,4.20461c-2.85569,-1.24119 -3.21724,-6.1137 -3.21724,-6.1137" fill="none" stroke="#000000" stroke-width="0.5" stroke-linecap="round"/><path d="M334.68354,151.37676c0,0 -1.98046,-1.68377 -2.37569,-3.35134c-1.42609,-6.01704 6.15347,-5.53755 6.15347,-5.53755" fill="none" stroke="#000000" stroke-width="0.5" stroke-linecap="round"/><path d="M332.23909,145.48786c0,0 -0.76587,2.93487 -15.09486,2.85685c-15.05485,-2.23294 -18.21231,-11.21033 -9.88784,-12.26574c3.19155,-0.40464 4.85078,1.92951 6.54599,4.18085c1.40619,1.8675 3.21449,3.45027 3.21449,3.45027" fill="none" stroke="#000000" stroke-width="0.5" stroke-linecap="round"/><path d="M309.3098,116.59898l-0.27273,5.90909" fill="none" stroke="#000000" stroke-width="0.5" stroke-linecap="round"/><path d="M311.40071,122.50807l1.63636,-7.09091" fill="none" stroke="#000000" stroke-width="0.5" stroke-linecap="round"/><path d="M316.03707,117.05352l-2.36363,5.09091" fill="none" stroke="#000000" stroke-width="0.5" stroke-linecap="round"/><path d="M318.86536,129.23029c0,5.2467 -5.82324,9.60101 -5.82324,9.60101c0,0 -1.12288,-2.56504 -5.42847,-2.90221c-1.2547,-0.09825 -2.92107,0.81542 -2.92107,0.81542c0,0 -1.84742,-2.80103 -1.93833,-7.51421c-0.10118,-5.24573 3.60659,-9.5 8.05555,-9.5c4.44896,0 8.05556,4.25329 8.05556,9.5z" fill="#ffffff" stroke="#000000" stroke-width="0.5" stroke-linecap="butt"/><path d="M306.72344,129.41327c-0.84803,2.74452 -3.20034,3.75517 -3.20034,3.75517c0,0 -1.13781,-2.10381 -0.80876,-4.38981c0.32905,-2.286 1.60034,-4.75517 1.60034,-4.75517c0,0 3.83137,0.78578 2.40876,5.38981z" fill="#000000" stroke="#000000" stroke-width="0.5" stroke-linecap="butt"/><path d="M315.89143,111.48056c0,0 1.37864,-0.79676 2.22219,-0.9804c3.76103,-0.81878 3.23935,3.6727 3.23935,3.6727" fill="none" stroke="#000000" stroke-width="0.5" stroke-linecap="round"/><path d="M330.89143,114.78826c0,0 1.03106,-1.08999 1.94439,-1.24135c3.53211,-0.58537 4.05561,2.70289 4.05561,2.70289" fill="none" stroke="#000000" stroke-width="0.5" stroke-linecap="round"/><path d="M323.42989,109.78826c0,0 4.01731,0.08794 7.0942,0.57529c7.21085,1.14213 11.82888,7.57855 11.82888,7.57855" fill="none" stroke="#000000" stroke-width="0.5" stroke-linecap="round"/><path d="M327.04528,117.17287l-0.53846,7.84616" fill="none" stroke="#000000" stroke-width="0.5" stroke-linecap="round"/><path d="M332.27604,116.86518l-3.15384,7.84615" fill="none" stroke="#000000" stroke-width="0.5" stroke-linecap="round"/><path d="M332.19912,125.86518l3.23077,-6" fill="none" stroke="#000000" stroke-width="0.5" stroke-linecap="round"/><path d="M337.04528,132.55749c0,6.07513 -3.97891,11.07692 -9.07692,11.07692c-5.09801,0 -9.53846,-3.07871 -9.30769,-10.38461c0.1918,-6.0721 4.36353,-11.46154 9.46154,-11.46154c5.09801,0 8.92307,4.6941 8.92307,10.76923z" fill="#ffffff" stroke="#000000" stroke-width="0.5" stroke-linecap="butt"/><path d="M331.88176,146.4958c0,0 -1.90489,15.67857 -9.32143,16.46429c-2.68721,0.28468 -11.82143,-15.82143 -11.82143,-15.82143c0,0 5.33355,1.48611 8.03571,1.46429c8.84511,-0.07143 13.10715,-2.10715 13.10715,-2.10715z" fill="#641544" stroke="#000000" stroke-width="0.5" stroke-linecap="butt"/><path d="M321.99313,133.24979c-0.67692,2.30289 -2.88313,3.06032 -2.88313,3.06032c0,0 -0.96942,-2.5578 -0.47412,-4.90646c0.49529,-2.34866 1.34467,-3.75263 1.34467,-3.75263c0,0 3.5848,0.25011 2.01258,5.59877z" fill="#000000" stroke="#000000" stroke-width="0.5" stroke-linecap="butt"/><path d="M308.35297,145.74125c0,0 -1.23995,4.45663 -2.40724,3.65384c-2.85076,-1.96057 -1.97737,-6.88461 -1.97737,-6.88461c0,0 1.32919,1.49762 2.04847,2.02762c0.74158,0.54642 2.33614,1.20315 2.33614,1.20315z" fill="#ffffff" stroke="#000000" stroke-width="0.5" stroke-linecap="butt"/><path d="M313.03623,147.83626c0,0 -1.54089,3.95489 -2.88009,3.98417c-1.7963,0.03927 -1.93892,-5.63122 -1.93892,-5.63122z" fill="#ffffff" stroke="#000000" stroke-width="0.5" stroke-linecap="butt"/><path d="M317.28079,148.51274c0,0 -1.04282,1.96732 -2.03221,1.91316c-2.60991,-0.14285 -2.09524,-2.77871 -2.09524,-2.77871z" fill="#ffffff" stroke="#000000" stroke-width="0.5" stroke-linecap="butt"/><path d="M330.16748,160.03627c0,0 -0.65741,1.5531 -2.40583,3.26735c-0.76884,0.75382 -2.22512,1.91122 -2.22512,1.91122" fill="none" stroke="#000000" stroke-width="0.5" stroke-linecap="round"/><path d="M319.27463,164.1077c0,0 -0.59457,-0.6952 -1.14299,-1.37558c-0.47145,-0.58489 -0.88706,-1.13707 -1.11234,-1.47804c-0.3361,-0.50869 -1.35181,-2.2178 -1.35181,-2.2178" fill="none" stroke="#000000" stroke-width="0.5" stroke-linecap="round"/><path d="M330.42418,151.928c0,0 -1.08201,6.12 -5.29595,9.54631c-1.92804,1.14506 -2.8469,0.80131 -2.8469,0.80131c0,0 -2.17168,-1.87605 -0.73334,-5.62381c2.57197,-6.70156 6.21234,-4.41397 6.21234,-4.41397c0,0 -0.82713,1.18682 -1.18511,1.8838c-0.34769,0.67693 -0.93284,2.23968 -0.93284,2.23968c0,0 1.28245,-2.73455 1.53418,-3.11427c1.86255,-2.80953 3.24762,-1.31905 3.24762,-1.31905z" fill="#f5949f" stroke="#af0b14" stroke-width="0.5" stroke-linecap="butt"/><path d="M302.98848,119.10354c0,0 7.63782,-0.10947 13.48978,0.55526c18.44549,2.09524 27.95466,7.88918 27.95466,7.88918" fill="none" stroke="#000000" stroke-width="1.5" stroke-linecap="round"/><path d="M320.09958,120.43688c0,0 -0.02529,7.41446 -2.53838,13.14549c-1.31931,3.00864 -4.79495,4.52117 -4.79495,4.52117" fill="none" stroke="#000000" stroke-width="1" stroke-linecap="round"/><path d="M304.2107,136.77021c0,0 -1.45994,-4.56077 -1.54906,-7.44145c-0.13442,-4.3452 1.54906,-10.44743 1.54906,-10.44743" fill="none" stroke="#000000" stroke-width="1" stroke-linecap="round"/><path d="M342.87737,126.7702c0,0 -4.19228,23.54662 -19.80301,15.52771c-8.06471,-4.14267 -1.86366,-21.97215 -1.86366,-21.97215" fill="none" stroke="#000000" stroke-width="1" stroke-linecap="round"/><path d="M432.46728,194.73385c0,0 -1.27993,8.32969 -4.78735,7.2233c-1.35845,-0.42852 0.81913,-7.18288 0.81913,-7.18288c0,0 -1.30291,4.2058 -3.01733,4.75957c-3.38703,1.09404 -0.93945,-4.8 -0.93945,-4.8" fill="none" stroke="#000000" stroke-width="0.5" stroke-linecap="round"/><path d="M403.88173,190.23384c0,0 1.2395,4.83443 -0.55643,6.19311c-2.88511,2.18268 -3.47905,-8.63879 -3.47905,-8.63879c0,0 0.46768,5.59403 -1.37932,5.95172c-2.52548,0.48909 -1.5852,-7.40604 -1.5852,-7.40604" fill="none" stroke="#000000" stroke-width="0.5" stroke-linecap="round"/><path d="M442.38173,144.13383c0,0 -1.78896,4.51555 -9.59059,6.61955c-1.78402,0.48112 -3.9596,-0.09805 -3.9596,-0.09805l2.96714,-2.75997c0,0 -1.40415,1.60724 -3.20905,2.71438c-1.67039,1.02463 -3.71271,1.54916 -4.61454,1.69584c-2.22045,0.36115 -5.71151,-0.33698 -5.71151,-0.33698l2.24489,-1.75014c0,0 -0.82321,1.17466 -2.35241,1.58943c-2.39556,0.64975 -3.16713,-0.24427 -3.16713,-0.24427l3.86943,-1.73947c0,0 -4.70632,2.16362 -8.18154,2.78212c-3.93393,0.70014 -6.79687,-0.15755 -8.79827,-0.60114c-2.84941,-0.63154 -4.77974,-3.1379 -4.77974,-3.1379l3.27922,-0.21282c0,0 -3.1808,0.03216 -4.4856,0.09649c-1.259,0.06207 -3.2107,0.28294 -3.2107,0.28294" fill="none" stroke="#000000" stroke-width="0.5" stroke-linecap="round"/><path d="M445.58173,160.63384l-5.26521,-10.04684l0.36521,-4.05316" fill="none" stroke="#000000" stroke-width="0.5" stroke-linecap="round"/><path d="M432.25861,156.11772c0.69067,2.25058 1.97681,4.41388 -10.41667,3.60417c-1.49285,-0.09753 -0.96372,-2.02891 -0.7446,-3.92727c0.18123,-1.57012 -0.10956,-3.3644 -0.10956,-3.3644c0,0 2.31757,0.20042 3.59382,-0.15205c1.35398,-0.37394 4.37315,-1.65598 4.37315,-1.65598c0,0 0.53888,0.18564 0.82578,0.2512c0.31224,0.07135 0.97808,0.161 0.97808,0.161c0,0 0.4064,1.51978 1.5,5.08333z" fill="#ffffff" stroke="#000000" stroke-width="0.5" stroke-linecap="butt"/><path d="M391.92891,136.99821c0,0 0.90665,-0.98552 1.44989,-1.44644c1.16749,-0.99056 2.62803,-0.57953 2.62803,-0.57953" fill="none" stroke="#8b440e" stroke-width="0.5" stroke-linecap="round"/><path d="M395.86397,132.40081c0,0 -0.94158,-0.78667 -1.22929,-1.19769c-0.36182,-0.51689 -0.77071,-1.65945 -0.77071,-1.65945" fill="none" stroke="#8b440e" stroke-width="0.5" stroke-linecap="round"/><path d="M411.66673,117.34887c2.57143,0.45422 -0.5974,5.28572 -0.5974,5.28572c0,0 -2.62551,-1.30881 -8.11407,1.60622c-2.08942,1.10971 -4.53934,2.54737 -4.53934,2.54737c0,0 -1.72975,-0.25287 -1.90503,-0.63411c-1.16998,-2.54472 4.52777,-4.70952 4.52777,-4.70952c0,0 -3.19783,1.33772 -3.59992,0.0603c-0.27846,-0.88465 1.66743,-2.07324 3.57578,-2.56287c2.32703,-0.59704 4.73736,-0.39823 4.73736,-0.39823c0,0 -1.74137,-0.76671 -0.33839,-2.01307c2.24151,-1.99129 5.22474,2.6741 5.22474,2.6741c0,0 -0.09806,-2.05491 1.02851,-1.85591z" fill="#c0c4cd" stroke="#000000" stroke-width="0.5" stroke-linecap="butt"/><path d="M413.83881,134.03555c0,2.32748 -3.64568,4.21428 -8.14286,4.21428c-4.49718,0 -8.14286,-1.8868 -8.14286,-4.21428c0,-2.32748 2.26235,-4.43514 7,-4.78572c6.0416,-0.44707 9.28572,2.45823 9.28572,4.78572z" fill="#f0f4ff" stroke="#000000" stroke-width="0.5" stroke-linecap="butt"/><path d="M400.12453,134.07126c0,0.92705 -1,1.96429 -1,1.96429c0,0 -1.5,-0.89438 -1.5,-1.82143c0,-0.92705 0.78571,-1.89285 0.78571,-1.89285c0,0 1.71429,0.82295 1.71429,1.75z" fill="#000000" stroke="#000000" stroke-width="0.5" stroke-linecap="butt"/><path d="M414.98167,137.10698c-0.27258,0.33498 -2.73639,-0.2733 -2.73639,-0.2733c0,0 -0.98918,2.3316 -6.51361,2.2733c-3.76744,-0.03976 -4.8404,-2.17011 -4.8404,-2.17011c0,0 -2.39128,0.35658 -2.62388,-0.04418c-1,-1.72292 4.29285,-2.35715 8.17857,-2.35715c3.88572,0 9.82143,0.99137 8.53571,2.57143z" fill="#f2a85d" stroke="#000000" stroke-width="0.5" stroke-linecap="butt"/><path d="M434.38643,136.99984c0,0 -3.3909,-0.15476 -7.75,-0.15476c-4.3591,0 -7.72619,-1.32284 -7.72619,-3.57143c0,-2.24859 2.62221,-5.06075 7.59524,-4.7619c13.87359,1.76783 7.88096,8.4881 7.88096,8.4881z" fill="#f0f4ff" stroke="#000000" stroke-width="0.5" stroke-linecap="butt"/><path d="M421.33881,133.24984c0,1.18347 -1.14286,2.07143 -1.14286,2.07143c0,0 -1.42857,-0.67368 -1.42857,-1.85714c0,-1.18347 1.07143,-2.14286 1.07143,-2.14286c0,0 1.5,0.74511 1.5,1.92857z" fill="#000000" stroke="#000000" stroke-width="0.5" stroke-linecap="butt"/><path d="M434.46976,137.2796c0,0.34287 -2.8822,-0.25102 -2.8822,-0.25102c0,0 2.52297,1.37602 -2.6178,1.45935c-5.80825,0.06714 -5.25,-1.70834 -5.25,-1.70834c0,0 -7.05377,0.42104 -3,-1.125c8.3088,-0.83334 13.75,0.77356 13.75,1.625z" fill="#f2a85d" stroke="#000000" stroke-width="0.5" stroke-linecap="butt"/><path d="M431.5531,126.49984c0,0 6.85228,-2.85524 4.94826,0.38564c-2.70767,2.23092 -5.90328,2.14767 -8.69826,2.07864c-4.31834,-0.10664 -7.86311,-2.18022 -7.46428,-3.96429c0.82522,-3.69146 2.28231,-3.08072 2.65963,-1.8484c0.21334,0.69675 -0.16732,1.31234 -0.16732,1.31234c0,0 1.89695,-1.65859 3.25769,-1.99966c3.7572,-0.94174 2.73922,1.73992 2.73922,1.73992c0,0 3.27418,-1.42816 4.36793,-1.02579c4.19095,1.54176 -1.64287,3.32159 -1.64287,3.32159z" fill="#c0c4cd" stroke="#000000" stroke-width="0.5" stroke-linecap="butt"/><path d="M459.20231,216.69628c1.25406,1.27539 2.48089,6.34346 1.73967,8.1031c-0.85415,2.02773 -3.80249,0.67322 -3.80249,0.67322c0,0 -1.78612,2.27924 -2.27052,2.27924c-2.11709,0 -3.16667,-2.91269 -3.16667,-5.88889c0,-2.9762 4,-3.05556 4,-3.05556c0,0 1.41333,-4.23328 3.5,-2.11111z" fill="#cec200" stroke="#000000" stroke-width="0.5" stroke-linecap="butt"/><path d="M454.49398,225.57128c0,0 0.03461,-1.41852 0.65655,-1.26403c1.81336,0.45045 3.17678,-1.65264 3.17678,-1.65264" fill="none" stroke="#000000" stroke-width="0.5" stroke-linecap="round"/><path d="M449.31768,291.13795c0,0 5.58585,-43.42335 11.8,-71.9c3.13635,-7.81516 10.14184,-5.04269 11.84449,-3.55405c6.7206,5.95281 1.3442,13.70761 1.3442,13.70761l-3.18869,-0.65356c0,0 1.45529,-4.39326 0.77855,-7.7757c-0.54113,-2.70464 -4.15031,-2.63511 -6.03005,-0.82409c-4.8303,6.50984 -12.3485,71.69979 -12.3485,71.69979z" fill="#602b00" stroke="#000000" stroke-width="0.5" stroke-linecap="butt"/><path d="M457.41065,220.82128c0,0 -0.72007,0.45645 -1.32394,0.85207c-0.79145,0.5185 -1.78919,1.15898 -2.94474,0.96546c-0.7969,-0.13346 -1.14799,0.59914 -1.14799,0.59914" fill="none" stroke="#000000" stroke-width="0.5" stroke-linecap="round"/><path d="M469.07732,224.48795c-2.23749,2.60288 -4.53965,0.40116 -5.04419,-0.3016c-1.10485,-1.5389 1.98259,-5.69433 1.98259,-5.69433c0,0 -1.31606,0.51153 -1.97724,-0.73654c-0.30549,-0.57665 -0.50283,-2.26753 -0.50283,-2.26753c0,0 -2.20049,1.87117 -2.55235,3.10407c-0.35402,1.24047 -0.8653,4.31616 -0.8653,4.31616l-0.70478,1.08297c0,0 -1.25321,-1.97312 -1.6004,-2.93801c-0.24228,-0.67335 -0.28372,-2.29818 -0.28372,-2.29818c0,0 2.10124,-2.55958 2.21489,-2.68367c3.91667,-4.2764 3.88209,-3.53234 7.20833,-4c0.90681,-0.1275 3.41046,2.0983 3.95126,4.24579c0.5408,2.14749 1.40448,4.41254 -1.82626,8.17087z" fill="#ffc78e" stroke="#8b440e" stroke-width="0.5" stroke-linecap="butt"/><path d="M459.49398,224.23795c0,0 -1.50953,-1.96688 -1.88047,-3.27259c-0.31396,-1.10513 -0.0362,-3.47741 -0.0362,-3.47741" fill="none" stroke="#000000" stroke-width="0.5" stroke-linecap="round"/></g></g></svg>